<svg xmlns="http://www.w3.org/2000/svg" xmlns:xlink="http://www.w3.org/1999/xlink" version="1.1" x="0px" y="0px" viewBox="0 0 1038.04 212.43" style="height: 60px;" xml:space="preserve" class="injected-svg" data-src="/assets/aice/logo_white.svg">
<style type="text/css">
	.st0{fill:#FFFFFF;}
</style>
<g id="Aice_logo">
</g>
<g id="Aice_logo_2">
	<g id="Layer_3">
	</g>
	<g>
		<g>
			<path class="st0" d="M763.18,34.68h-18.35v-1.85c0.85-0.06,1.86-0.22,3.01-0.46c1.15-0.25,1.73-0.55,1.73-0.91     c0-0.13-0.01-0.27-0.04-0.43c-0.02-0.16-0.09-0.37-0.2-0.64l-2.87-6.98h-11.63c-0.27,0.65-0.56,1.41-0.89,2.28     c-0.32,0.87-0.6,1.65-0.84,2.33c-0.3,0.89-0.48,1.53-0.53,1.92c-0.06,0.4-0.08,0.67-0.08,0.83c0,0.51,0.38,0.94,1.15,1.29     c0.77,0.36,2.04,0.61,3.83,0.77v1.85h-13.81v-1.85c0.52-0.03,1.11-0.11,1.77-0.25c0.66-0.13,1.17-0.32,1.55-0.56     c0.65-0.38,1.2-0.85,1.65-1.4s0.83-1.21,1.13-1.97c1.84-4.45,3.67-8.9,5.52-13.36c1.84-4.46,3.88-9.38,6.11-14.76h4.75     c3.1,7.63,5.53,13.66,7.29,18.09c1.76,4.43,3.25,8.1,4.49,11.01c0.21,0.47,0.47,0.91,0.78,1.29s0.77,0.75,1.35,1.1     c0.44,0.25,0.96,0.44,1.54,0.57c0.59,0.13,1.12,0.21,1.59,0.24V34.68z M745.48,21.06l-4.87-12.17l-4.8,12.17H745.48z"></path>
			<path class="st0" d="M784.36,34.68h-18.68v-1.85c0.43-0.03,1.06-0.08,1.89-0.14c0.83-0.06,1.4-0.16,1.72-0.28     c0.59-0.24,0.99-0.55,1.2-0.94s0.32-0.88,0.32-1.48V6.1c0-0.54-0.1-1.01-0.31-1.42c-0.21-0.41-0.61-0.74-1.21-1     c-0.38-0.16-0.94-0.32-1.68-0.49c-0.74-0.17-1.38-0.28-1.92-0.34V1h18.68v1.85c-0.47,0.05-1.07,0.11-1.78,0.2     s-1.31,0.21-1.8,0.37c-0.62,0.21-1.03,0.53-1.23,0.96c-0.21,0.44-0.31,0.93-0.31,1.48v23.85c0,0.57,0.11,1.06,0.32,1.46     s0.62,0.73,1.22,0.98c0.33,0.14,0.88,0.28,1.65,0.42s1.41,0.22,1.93,0.25V34.68z"></path>
			<path class="st0" d="M744.29,93.94c-2.47,0-4.78-0.4-6.93-1.2c-2.15-0.8-4.03-1.96-5.63-3.48c-1.57-1.49-2.8-3.33-3.7-5.53     c-0.9-2.19-1.35-4.61-1.35-7.24c0-2.61,0.45-5.03,1.36-7.26c0.91-2.23,2.19-4.16,3.83-5.79c1.61-1.6,3.55-2.84,5.82-3.72     c2.26-0.88,4.68-1.32,7.26-1.32c1.87,0,3.57,0.23,5.1,0.69c1.54,0.46,2.83,0.97,3.89,1.54l1.47-1.31h2.07l0.21,12.29h-2.09     c-1.19-3.76-2.61-6.52-4.27-8.28s-3.68-2.64-6.07-2.64c-2.97,0-5.23,1.31-6.78,3.93s-2.32,6.3-2.32,11.04     c0,2.68,0.26,4.96,0.79,6.86c0.53,1.89,1.22,3.42,2.08,4.58c0.92,1.21,2,2.09,3.25,2.65c1.25,0.56,2.63,0.84,4.15,0.84     c2.21,0,4.18-0.6,5.92-1.8c1.73-1.2,3.31-3.02,4.73-5.46l2.04,1.23c-0.68,1.39-1.46,2.64-2.33,3.74s-1.88,2.04-3.01,2.84     c-1.25,0.87-2.63,1.55-4.14,2.04S746.34,93.94,744.29,93.94z"></path>
			<path class="st0" d="M788.99,87.34c-0.55,0.9-1.22,1.75-2.01,2.55c-0.78,0.8-1.67,1.48-2.67,2.05c-1.06,0.6-2.13,1.06-3.22,1.36     c-1.08,0.31-2.33,0.46-3.74,0.46c-2.34,0-4.36-0.33-6.06-1c-1.7-0.66-3.11-1.56-4.21-2.68s-1.93-2.45-2.48-3.98     s-0.82-3.18-0.82-4.97c0-1.61,0.3-3.16,0.89-4.64s1.44-2.8,2.53-3.95c1.08-1.12,2.43-2.03,4.07-2.73s3.47-1.04,5.49-1.04     c2.21,0,4.04,0.27,5.46,0.81s2.6,1.28,3.54,2.23c0.9,0.9,1.56,1.97,1.97,3.19c0.41,1.23,0.62,2.51,0.62,3.86v1.54H772.3     c0,3.24,0.62,5.71,1.88,7.41s3.24,2.54,5.96,2.54c1.49,0,2.83-0.41,4.01-1.22c1.19-0.81,2.2-1.85,3.04-3.1L788.99,87.34z      M779.92,78.32c0-0.95-0.05-1.92-0.14-2.92c-0.09-1-0.26-1.81-0.5-2.44c-0.27-0.74-0.64-1.31-1.1-1.69     c-0.47-0.38-1.06-0.57-1.77-0.57c-1.22,0-2.19,0.62-2.92,1.85s-1.12,3.19-1.19,5.86L779.92,78.32z"></path>
			<path class="st0" d="M824.93,93.01h-14.26v-1.73c0.3-0.03,0.67-0.07,1.09-0.12c0.43-0.05,0.75-0.13,0.97-0.24     c0.33-0.17,0.57-0.43,0.71-0.76c0.14-0.33,0.21-0.82,0.21-1.47V77.58c0-1.61-0.3-2.83-0.89-3.64c-0.59-0.82-1.47-1.22-2.63-1.22     c-0.63,0-1.23,0.09-1.77,0.29c-0.55,0.19-1.08,0.47-1.61,0.83c-0.46,0.32-0.83,0.64-1.11,0.97s-0.51,0.62-0.7,0.88v12.75     c0,0.55,0.08,1.02,0.24,1.39c0.16,0.37,0.42,0.65,0.78,0.84c0.25,0.14,0.57,0.27,0.95,0.38c0.38,0.11,0.75,0.19,1.12,0.24v1.73     H793.6v-1.73c0.39-0.03,0.79-0.08,1.2-0.13c0.4-0.05,0.75-0.13,1.03-0.23c0.51-0.17,0.85-0.44,1.04-0.81     c0.19-0.36,0.28-0.84,0.28-1.42V74.88c0-0.49-0.13-0.97-0.38-1.45s-0.58-0.86-1-1.16c-0.29-0.19-0.65-0.35-1.08-0.47     c-0.44-0.13-0.91-0.21-1.44-0.26V69.8l11.32-0.62l0.36,0.36v3.44h0.09c0.44-0.39,0.98-0.87,1.61-1.42s1.22-1,1.76-1.35     c0.58-0.38,1.35-0.7,2.3-0.97c0.95-0.27,1.96-0.4,3.04-0.4c2.58,0,4.51,0.73,5.8,2.2c1.29,1.46,1.93,3.41,1.93,5.83v11.63     c0,0.59,0.09,1.05,0.26,1.4c0.17,0.35,0.5,0.62,0.97,0.83c0.25,0.11,0.57,0.22,0.94,0.33c0.37,0.11,0.79,0.19,1.27,0.24V93.01z"></path>
			<path class="st0" d="M847.13,91.92c-1.01,0.44-2.1,0.84-3.25,1.2c-1.16,0.36-2.56,0.53-4.22,0.53c-2.47,0-4.3-0.6-5.49-1.8     c-1.2-1.2-1.79-2.92-1.79-5.15V72.15h-4.27v-2.59h4.37v-7.19h7.69v7.19h6.67v2.59h-6.62v12.99c0,1.85,0.26,3.16,0.77,3.93     c0.52,0.77,1.44,1.16,2.77,1.16c0.43,0,1.02-0.03,1.79-0.1c0.76-0.06,1.29-0.13,1.6-0.21V91.92z"></path>
			<path class="st0" d="M874.76,73.81c0,1.2-0.37,2.26-1.12,3.17c-0.74,0.91-1.72,1.36-2.94,1.36c-1.16,0-2.13-0.29-2.93-0.87     s-1.2-1.44-1.2-2.58c0-0.55,0.04-0.98,0.12-1.29c0.08-0.31,0.15-0.59,0.21-0.86c-0.73,0.03-1.5,0.28-2.3,0.75     c-0.81,0.47-1.52,1.1-2.14,1.88v13.03c0,0.55,0.09,1.01,0.26,1.38c0.17,0.36,0.47,0.65,0.88,0.85c0.35,0.17,0.91,0.32,1.7,0.44     c0.78,0.12,1.35,0.19,1.7,0.2v1.73h-15.88v-1.73c0.39-0.03,0.79-0.08,1.2-0.13c0.4-0.05,0.75-0.13,1.03-0.23     c0.51-0.17,0.85-0.44,1.04-0.81c0.19-0.36,0.28-0.84,0.28-1.42V74.88c0-0.57-0.13-1.08-0.4-1.53c-0.27-0.45-0.59-0.81-0.97-1.08     c-0.29-0.19-0.65-0.35-1.08-0.47c-0.44-0.13-0.91-0.21-1.44-0.26V69.8l11.32-0.62l0.36,0.36v3.44h0.09     c1.09-1.27,2.25-2.26,3.48-2.98c1.23-0.72,2.5-1.08,3.83-1.08c1.47,0,2.65,0.46,3.55,1.37C874.32,71.2,874.76,72.37,874.76,73.81     z"></path>
			<path class="st0" d="M904.25,87.34c-0.55,0.9-1.22,1.75-2.01,2.55c-0.78,0.8-1.67,1.48-2.67,2.05c-1.06,0.6-2.13,1.06-3.22,1.36     c-1.08,0.31-2.33,0.46-3.74,0.46c-2.34,0-4.36-0.33-6.06-1c-1.7-0.66-3.11-1.56-4.21-2.68s-1.93-2.45-2.48-3.98     s-0.82-3.18-0.82-4.97c0-1.61,0.3-3.16,0.89-4.64s1.44-2.8,2.53-3.95c1.08-1.12,2.43-2.03,4.07-2.73s3.47-1.04,5.49-1.04     c2.21,0,4.04,0.27,5.46,0.81s2.6,1.28,3.54,2.23c0.9,0.9,1.56,1.97,1.97,3.19c0.41,1.23,0.62,2.51,0.62,3.86v1.54h-16.04     c0,3.24,0.62,5.71,1.88,7.41s3.24,2.54,5.96,2.54c1.49,0,2.83-0.41,4.01-1.22c1.19-0.81,2.2-1.85,3.04-3.1L904.25,87.34z      M895.18,78.32c0-0.95-0.05-1.92-0.14-2.92c-0.09-1-0.26-1.81-0.5-2.44c-0.27-0.74-0.64-1.31-1.1-1.69     c-0.47-0.38-1.06-0.57-1.77-0.57c-1.22,0-2.19,0.62-2.92,1.85s-1.12,3.19-1.19,5.86L895.18,78.32z"></path>
			<path class="st0" d="M757.75,121.41c1.66,1.52,2.98,3.35,3.95,5.51c0.97,2.15,1.46,4.6,1.46,7.36c0,2.45-0.41,4.79-1.23,7     c-0.82,2.22-2.01,4.12-3.56,5.72c-1.63,1.66-3.54,2.96-5.74,3.88s-4.82,1.39-7.86,1.39c-2.45,0-4.77-0.4-6.96-1.21     c-2.18-0.81-4.11-1.98-5.77-3.51c-1.65-1.5-2.95-3.33-3.92-5.48c-0.96-2.15-1.45-4.55-1.45-7.19c0-2.75,0.47-5.25,1.41-7.49     c0.94-2.24,2.23-4.16,3.88-5.76c1.63-1.57,3.56-2.77,5.8-3.62c2.24-0.85,4.62-1.27,7.16-1.27c2.52,0,4.88,0.41,7.08,1.23     C754.22,118.79,756.13,119.94,757.75,121.41z M751.65,145.52c0.71-1.44,1.23-3.08,1.54-4.9c0.32-1.82,0.47-3.88,0.47-6.18     c0-1.95-0.14-3.85-0.42-5.69c-0.28-1.85-0.75-3.49-1.41-4.93c-0.68-1.44-1.58-2.6-2.71-3.47c-1.12-0.87-2.52-1.31-4.2-1.31     c-2.86,0-5.04,1.36-6.53,4.08c-1.49,2.72-2.23,6.56-2.23,11.52c0,2.11,0.16,4.1,0.49,5.97c0.32,1.87,0.83,3.5,1.53,4.9     c0.71,1.41,1.61,2.51,2.71,3.29c1.09,0.79,2.44,1.18,4.04,1.18c1.57,0,2.91-0.4,4.03-1.19     C750.09,147.98,750.98,146.9,751.65,145.52z"></path>
			<path class="st0" d="M791,118.64c0,0.4-0.06,0.83-0.19,1.3s-0.33,0.88-0.62,1.21c-0.33,0.4-0.7,0.7-1.12,0.9     c-0.41,0.21-1.03,0.31-1.85,0.31c-1.25,0-2.23-0.43-2.94-1.3c-0.71-0.87-1.47-2.32-2.28-4.34c-0.63,0.27-1.15,0.96-1.54,2.08     c-0.4,1.12-0.59,3.53-0.59,7.22v1.87h6.55v2.59h-6.5v16.33c0,0.62,0.14,1.09,0.43,1.43s0.66,0.59,1.12,0.75     c0.38,0.13,0.88,0.25,1.5,0.37c0.62,0.12,1.17,0.2,1.66,0.25v1.73h-16.04v-1.73c0.41-0.03,0.82-0.07,1.21-0.12     c0.39-0.05,0.74-0.13,1.04-0.24c0.51-0.19,0.86-0.46,1.04-0.82c0.18-0.36,0.28-0.83,0.28-1.41v-16.55h-4.82v-2.59h4.82     c0-1.69,0.25-3.33,0.74-4.92c0.49-1.59,1.25-3,2.28-4.25c1-1.23,2.31-2.23,3.94-2.98c1.63-0.76,3.54-1.14,5.74-1.14     c1.96,0,3.48,0.37,4.56,1.12C790.47,116.46,791,117.43,791,118.64z"></path>
			<path class="st0" d="M756.49,184.58h-1.8c-0.46-1.28-1.25-2.57-2.37-3.88c-1.12-1.31-2.24-2.08-3.35-2.32     c-0.47-0.11-1.13-0.18-1.98-0.2c-0.85-0.02-1.55-0.04-2.1-0.04h-4.89v12.98h3.47c0.87,0,1.66-0.1,2.37-0.31     c0.71-0.21,1.36-0.6,1.95-1.19c0.36-0.36,0.73-1,1.1-1.92c0.37-0.92,0.61-1.72,0.72-2.4h1.8v14.05h-1.8     c-0.1-0.67-0.34-1.5-0.72-2.5s-0.76-1.7-1.1-2.08c-0.52-0.57-1.14-0.96-1.85-1.17c-0.71-0.21-1.53-0.32-2.47-0.32h-3.47V203     c0,1.01,0.08,1.82,0.23,2.41c0.15,0.59,0.43,1.05,0.84,1.37c0.4,0.3,0.94,0.5,1.63,0.59c0.69,0.1,1.63,0.14,2.81,0.14     c0.55,0,1.22-0.01,1.99-0.02c0.77-0.02,1.46-0.06,2.04-0.14c0.66-0.08,1.29-0.2,1.86-0.36c0.58-0.16,1.01-0.39,1.29-0.69     c0.76-0.78,1.61-1.96,2.56-3.55c0.95-1.59,1.57-2.78,1.88-3.57h1.73l-0.64,10.49h-31.59v-1.85c0.44-0.03,1.04-0.09,1.8-0.19     s1.3-0.21,1.61-0.33c0.6-0.25,1-0.57,1.21-0.96c0.21-0.39,0.31-0.88,0.31-1.48V181.1c0-0.57-0.09-1.04-0.26-1.41     c-0.17-0.37-0.59-0.71-1.26-1.01c-0.41-0.19-0.99-0.36-1.73-0.52c-0.74-0.16-1.31-0.26-1.69-0.31v-1.85h29.86V184.58z"></path>
			<path class="st0" d="M790.82,209.67h-14.83v-1.73c0.78-0.05,1.43-0.12,1.95-0.2s0.79-0.26,0.79-0.53c0-0.13-0.07-0.32-0.2-0.59     c-0.13-0.27-0.3-0.57-0.51-0.9c-0.3-0.49-0.82-1.27-1.56-2.33c-0.74-1.06-1.43-2.05-2.08-2.95c-0.92,1.06-1.69,1.98-2.3,2.74     c-0.62,0.76-1.27,1.58-1.95,2.45c-0.24,0.29-0.4,0.55-0.5,0.78c-0.09,0.24-0.14,0.38-0.14,0.43c0,0.36,0.26,0.64,0.77,0.83     c0.51,0.19,1.13,0.29,1.84,0.29v1.73h-9.64v-1.73c1.28-0.27,2.31-0.7,3.08-1.28c0.77-0.58,1.29-1.04,1.56-1.35     c1.16-1.24,2.13-2.27,2.94-3.09c0.8-0.82,1.87-1.97,3.22-3.45c-0.9-1.25-1.99-2.77-3.27-4.57c-1.28-1.8-2.35-3.27-3.2-4.42     c-0.43-0.57-0.95-1.01-1.58-1.32c-0.62-0.31-1.42-0.51-2.41-0.61v-1.73h14.5v1.73c-0.52,0-1.03,0.03-1.54,0.1     c-0.51,0.06-0.76,0.17-0.76,0.33c0,0.13,0.04,0.28,0.12,0.47c0.08,0.19,0.18,0.39,0.31,0.59c0.3,0.51,0.77,1.25,1.42,2.23     c0.65,0.98,1.34,2.01,2.08,3.08c0.71-0.87,1.31-1.58,1.79-2.13c0.48-0.55,1.1-1.34,1.86-2.35c0.29-0.38,0.46-0.66,0.53-0.85     c0.07-0.19,0.11-0.31,0.11-0.36c0-0.27-0.17-0.51-0.51-0.72c-0.34-0.21-1.01-0.34-2-0.39v-1.73h9.45v1.73     c-0.78,0.13-1.53,0.39-2.25,0.78c-0.73,0.4-1.49,1.01-2.28,1.85c-1.23,1.28-2.13,2.22-2.69,2.81c-0.56,0.59-1.49,1.58-2.78,2.95     c0.73,1.03,1.78,2.53,3.15,4.49c1.37,1.96,2.56,3.62,3.56,4.96c0.43,0.6,0.91,1.09,1.44,1.47s1.37,0.63,2.53,0.76V209.67z"></path>
			<path class="st0" d="M808.22,210.43c-2.2,0-4.14-0.32-5.83-0.96c-1.69-0.64-3.07-1.51-4.17-2.62c-1.09-1.12-1.91-2.45-2.44-3.99     c-0.54-1.54-0.81-3.2-0.81-5.01c0-1.65,0.33-3.21,0.98-4.7s1.55-2.79,2.67-3.92c1.16-1.16,2.59-2.08,4.31-2.77     c1.72-0.69,3.61-1.03,5.68-1.03c2.91,0,5.21,0.55,6.91,1.65c1.69,1.1,2.54,2.58,2.54,4.45c0,1.14-0.3,2.06-0.9,2.75     s-1.64,1.04-3.11,1.04c-1.19,0-2.18-0.28-2.98-0.85c-0.8-0.57-1.2-1.31-1.2-2.23c0-0.78,0.13-1.54,0.38-2.3     c0.25-0.76,0.4-1.34,0.45-1.73c-0.17-0.29-0.4-0.5-0.66-0.65c-0.27-0.15-0.69-0.22-1.26-0.22c-0.71,0-1.36,0.17-1.95,0.5     c-0.59,0.33-1.13,0.92-1.64,1.76c-0.49,0.79-0.88,1.85-1.17,3.18c-0.29,1.33-0.44,2.93-0.44,4.79c0,2.82,0.66,5.09,1.98,6.81     c1.32,1.72,2.9,2.59,4.73,2.59c1.76,0,3.15-0.39,4.19-1.17s1.96-1.89,2.76-3.33l1.78,1.23c-0.49,0.97-1.08,1.85-1.76,2.65     c-0.68,0.8-1.5,1.51-2.45,2.12c-1,0.65-2.01,1.14-3.04,1.47C810.77,210.27,809.58,210.43,808.22,210.43z"></path>
			<path class="st0" d="M848.34,204c-0.55,0.9-1.22,1.75-2.01,2.55s-1.67,1.48-2.67,2.05c-1.06,0.6-2.13,1.06-3.22,1.37     c-1.08,0.31-2.33,0.46-3.74,0.46c-2.34,0-4.36-0.33-6.06-1c-1.7-0.67-3.11-1.56-4.21-2.68c-1.11-1.12-1.93-2.45-2.48-3.98     c-0.55-1.53-0.82-3.18-0.82-4.97c0-1.61,0.3-3.16,0.89-4.64c0.59-1.48,1.44-2.8,2.53-3.95c1.08-1.12,2.43-2.03,4.07-2.73     s3.47-1.04,5.49-1.04c2.21,0,4.04,0.27,5.46,0.81s2.6,1.28,3.54,2.23c0.9,0.9,1.56,1.97,1.97,3.19c0.41,1.23,0.62,2.51,0.62,3.86     v1.54h-16.04c0,3.24,0.62,5.71,1.88,7.41c1.25,1.69,3.24,2.54,5.96,2.54c1.49,0,2.83-0.41,4.01-1.22c1.19-0.81,2.2-1.85,3.04-3.1     L848.34,204z M839.27,194.98c0-0.95-0.05-1.92-0.14-2.92s-0.26-1.81-0.5-2.44c-0.27-0.74-0.64-1.31-1.1-1.69     s-1.06-0.57-1.77-0.57c-1.22,0-2.19,0.62-2.92,1.85c-0.73,1.23-1.12,3.19-1.19,5.86L839.27,194.98z"></path>
			<path class="st0" d="M867.45,209.67H852.5v-1.73c0.41-0.03,0.82-0.07,1.21-0.12c0.39-0.05,0.74-0.13,1.04-0.24     c0.51-0.19,0.86-0.46,1.04-0.82c0.18-0.36,0.28-0.83,0.28-1.41v-26.3c0-0.6-0.12-1.16-0.37-1.67c-0.25-0.51-0.57-0.91-0.99-1.17     c-0.32-0.21-0.79-0.4-1.44-0.59c-0.64-0.19-1.21-0.3-1.7-0.33v-1.73l11.96-0.62l0.36,0.38v31.73c0,0.58,0.1,1.06,0.31,1.42     s0.54,0.65,1,0.85c0.32,0.14,0.65,0.27,1,0.38s0.76,0.19,1.24,0.24V209.67z"></path>
			<path class="st0" d="M886.52,209.67h-14.95v-1.73c0.41-0.03,0.82-0.07,1.21-0.12c0.39-0.05,0.74-0.13,1.04-0.24     c0.51-0.19,0.86-0.46,1.04-0.82c0.18-0.36,0.28-0.83,0.28-1.41v-26.3c0-0.6-0.12-1.16-0.37-1.67c-0.25-0.51-0.57-0.91-0.99-1.17     c-0.32-0.21-0.79-0.4-1.44-0.59c-0.64-0.19-1.21-0.3-1.7-0.33v-1.73l11.96-0.62l0.36,0.38v31.73c0,0.58,0.1,1.06,0.31,1.42     s0.54,0.65,1,0.85c0.32,0.14,0.65,0.27,1,0.38s0.76,0.19,1.24,0.24V209.67z"></path>
			<path class="st0" d="M916.6,204c-0.55,0.9-1.22,1.75-2.01,2.55s-1.67,1.48-2.67,2.05c-1.06,0.6-2.13,1.06-3.22,1.37     c-1.08,0.31-2.33,0.46-3.74,0.46c-2.34,0-4.36-0.33-6.06-1c-1.7-0.67-3.11-1.56-4.21-2.68c-1.11-1.12-1.93-2.45-2.48-3.98     c-0.55-1.53-0.82-3.18-0.82-4.97c0-1.61,0.3-3.16,0.89-4.64c0.59-1.48,1.44-2.8,2.53-3.95c1.08-1.12,2.43-2.03,4.07-2.73     s3.47-1.04,5.49-1.04c2.21,0,4.04,0.27,5.46,0.81s2.6,1.28,3.54,2.23c0.9,0.9,1.56,1.97,1.97,3.19c0.41,1.23,0.62,2.51,0.62,3.86     v1.54h-16.04c0,3.24,0.62,5.71,1.88,7.41c1.25,1.69,3.24,2.54,5.96,2.54c1.49,0,2.83-0.41,4.01-1.22c1.19-0.81,2.2-1.85,3.04-3.1     L916.6,204z M907.53,194.98c0-0.95-0.05-1.92-0.14-2.92s-0.26-1.81-0.5-2.44c-0.27-0.74-0.64-1.31-1.1-1.69s-1.06-0.57-1.77-0.57     c-1.22,0-2.19,0.62-2.92,1.85c-0.73,1.23-1.12,3.19-1.19,5.86L907.53,194.98z"></path>
			<path class="st0" d="M952.54,209.67h-14.26v-1.73c0.3-0.03,0.67-0.07,1.09-0.12c0.43-0.05,0.75-0.13,0.97-0.24     c0.33-0.17,0.57-0.43,0.71-0.76c0.14-0.33,0.21-0.82,0.21-1.47v-11.11c0-1.61-0.3-2.83-0.89-3.64c-0.59-0.81-1.47-1.22-2.63-1.22     c-0.63,0-1.23,0.09-1.77,0.28c-0.55,0.19-1.08,0.47-1.61,0.83c-0.46,0.32-0.83,0.64-1.11,0.97c-0.28,0.33-0.51,0.62-0.7,0.88     v12.75c0,0.55,0.08,1.02,0.24,1.39c0.16,0.37,0.42,0.65,0.78,0.84c0.25,0.14,0.57,0.27,0.95,0.38c0.38,0.11,0.75,0.19,1.12,0.24     v1.73h-14.43v-1.73c0.39-0.03,0.79-0.08,1.2-0.13c0.4-0.05,0.75-0.13,1.03-0.23c0.51-0.17,0.85-0.44,1.04-0.81     c0.19-0.36,0.28-0.84,0.28-1.42v-13.81c0-0.49-0.13-0.97-0.38-1.45s-0.58-0.86-1-1.16c-0.29-0.19-0.65-0.35-1.08-0.47     c-0.44-0.13-0.91-0.21-1.44-0.26v-1.73l11.32-0.62l0.36,0.36v3.44h0.09c0.44-0.4,0.98-0.87,1.61-1.42s1.22-1,1.76-1.35     c0.58-0.38,1.35-0.7,2.3-0.97c0.95-0.27,1.96-0.4,3.04-0.4c2.58,0,4.51,0.73,5.8,2.2c1.29,1.46,1.93,3.41,1.93,5.83v11.63     c0,0.59,0.09,1.05,0.26,1.4c0.17,0.35,0.5,0.62,0.97,0.83c0.25,0.11,0.57,0.22,0.94,0.33s0.79,0.19,1.27,0.24V209.67z"></path>
			<path class="st0" d="M970.63,210.43c-2.2,0-4.14-0.32-5.83-0.96c-1.69-0.64-3.07-1.51-4.17-2.62c-1.09-1.12-1.91-2.45-2.44-3.99     c-0.54-1.54-0.81-3.2-0.81-5.01c0-1.65,0.33-3.21,0.98-4.7s1.55-2.79,2.67-3.92c1.16-1.16,2.59-2.08,4.31-2.77     c1.72-0.69,3.61-1.03,5.68-1.03c2.91,0,5.21,0.55,6.91,1.65c1.69,1.1,2.54,2.58,2.54,4.45c0,1.14-0.3,2.06-0.9,2.75     s-1.64,1.04-3.11,1.04c-1.19,0-2.18-0.28-2.98-0.85c-0.8-0.57-1.2-1.31-1.2-2.23c0-0.78,0.13-1.54,0.38-2.3     c0.25-0.76,0.4-1.34,0.45-1.73c-0.17-0.29-0.4-0.5-0.66-0.65c-0.27-0.15-0.69-0.22-1.26-0.22c-0.71,0-1.36,0.17-1.95,0.5     c-0.59,0.33-1.13,0.92-1.64,1.76c-0.49,0.79-0.88,1.85-1.17,3.18c-0.29,1.33-0.44,2.93-0.44,4.79c0,2.82,0.66,5.09,1.98,6.81     c1.32,1.72,2.9,2.59,4.73,2.59c1.76,0,3.15-0.39,4.19-1.17s1.96-1.89,2.76-3.33l1.78,1.23c-0.49,0.97-1.08,1.85-1.76,2.65     c-0.68,0.8-1.5,1.51-2.45,2.12c-1,0.65-2.01,1.14-3.04,1.47C973.19,210.27,971.99,210.43,970.63,210.43z"></path>
			<path class="st0" d="M1010.75,204c-0.55,0.9-1.22,1.75-2.01,2.55s-1.67,1.48-2.67,2.05c-1.06,0.6-2.13,1.06-3.22,1.37     c-1.08,0.31-2.33,0.46-3.74,0.46c-2.34,0-4.36-0.33-6.06-1c-1.7-0.67-3.11-1.56-4.21-2.68c-1.11-1.12-1.93-2.45-2.48-3.98     c-0.55-1.53-0.82-3.18-0.82-4.97c0-1.61,0.3-3.16,0.89-4.64c0.59-1.48,1.44-2.8,2.53-3.95c1.08-1.12,2.43-2.03,4.07-2.73     s3.47-1.04,5.49-1.04c2.21,0,4.04,0.27,5.46,0.81s2.6,1.28,3.54,2.23c0.9,0.9,1.56,1.97,1.97,3.19c0.41,1.23,0.62,2.51,0.62,3.86     v1.54h-16.04c0,3.24,0.62,5.71,1.88,7.41c1.25,1.69,3.24,2.54,5.96,2.54c1.49,0,2.83-0.41,4.01-1.22c1.19-0.81,2.2-1.85,3.04-3.1     L1010.75,204z M1001.68,194.98c0-0.95-0.05-1.92-0.14-2.92s-0.26-1.81-0.5-2.44c-0.27-0.74-0.64-1.31-1.1-1.69     s-1.06-0.57-1.77-0.57c-1.22,0-2.19,0.62-2.92,1.85c-0.73,1.23-1.12,3.19-1.19,5.86L1001.68,194.98z"></path>
			<path class="st0" d="M1026.66,205.73c0,1.25-0.46,2.33-1.39,3.25c-0.93,0.92-2.02,1.38-3.29,1.38c-1.28,0-2.39-0.46-3.31-1.37     c-0.93-0.91-1.39-2-1.39-3.26c0-1.27,0.46-2.36,1.39-3.29s2.03-1.39,3.31-1.39c1.27,0,2.36,0.47,3.29,1.4     C1026.2,203.39,1026.66,204.48,1026.66,205.73z"></path>
		</g>
	</g>
	<g>
		<g>
			<path class="st0" d="M77.54,47.47C38.4,47.74,6.77,79.8,7.04,118.94c0.25,36.83,28.65,67.01,64.62,70.22     c-0.03-4.64-0.27-40.37-0.31-45.34L54.8,127.96l-0.15-21.95c2.82-0.84,4.88-3.46,4.86-6.55c-0.06-8.97-13.64-8.88-13.58,0.09     c0.02,3.09,2.12,5.69,4.95,6.49l0.08,11.1l-7-5.22l-0.13-18.96c7.43-2.29,5.74-13.33-2.04-13.28     c-7.84,0.05-9.33,11.28-1.72,13.34l0.14,20.8l10.78,8.04l0.05,7.72l3.48,3.33l-10.13,0.07l-10.85-10.39     c2.94-4.52-0.35-10.52-5.74-10.48c-10.88,0.07-7.29,17.64,2.87,12.96l12.21,11.69l15.53-0.1l9.17,8.79     c0.03,4.65,0.24,35.41,0.27,39.48c-31.98-4.87-56.83-32.47-57.05-66c-0.25-37.07,29.7-67.42,66.77-67.67     c37.07-0.25,67.42,29.7,67.67,66.77c0.23,34.41-25.56,63.04-58.93,67.16l-0.03-4.21c30.98-4.07,54.99-30.76,54.78-62.92     c-0.23-34.76-28.7-62.84-63.46-62.61c-34.76,0.23-62.84,28.7-62.61,63.46c0.2,29.81,21.17,54.72,49.07,61.05l-0.02-3.44     c-26.03-6.28-45.51-29.67-45.7-57.63c-0.22-32.91,26.37-59.87,59.29-60.09c32.91-0.22,59.87,26.37,60.09,59.29     c0.2,30.29-22.29,55.49-51.46,59.53c-0.09-13.35-0.16-24.31-0.21-30.73l1-0.77l11.22-0.08l17.57-9.5     c4.28,4.29,11.64,1.22,11.6-4.84c-0.07-9.98-15.6-8.18-13.41,1.54l-16.72,9.04l-5.29,0.04l30.43-23.29l-0.15-21.77     c7.49-2.22,5.86-13.35-1.97-13.3c-7.83,0.05-9.3,11.2-1.79,13.32l0.13,19.87l-23.08,17.67l-0.09-12.99l11.86-8.65l-0.06-9.39     c7.48-2.22,5.85-13.35-1.97-13.3c-7.84,0.05-9.3,11.21-1.79,13.32l0.05,7.45l-11.86,8.65l0.12,17.76l-9.56,7.32     c0.03,5.02,0.27,39.34,0.3,44.32c37.26-2.37,66.69-33.56,66.44-71.32C148.75,78.84,116.69,47.21,77.54,47.47z M40.14,83.94     c1.25-0.77,2.79-0.65,3.85,0.36c1.56,1.49,1.1,4.78-1.77,5.15C38.45,89.47,37.86,85.45,40.14,83.94z M25.71,121.07     c-1.82-1.86-0.71-5.18,2.12-5.2c1.73-0.01,3.03,1.27,3.04,3C30.9,121.69,27.6,122.87,25.71,121.07z M49.7,99.52     c-0.03-4,6.02-4.04,6.05-0.04C55.77,103.48,49.73,103.52,49.7,99.52z M120.62,128.69c1.73-0.01,3.03,1.27,3.05,3     c0.01,1.73-1.28,3.03-3.01,3.04c-1.72,0.01-3.03-1.27-3.04-3C117.61,130.01,118.89,128.7,120.62,128.69z M120.34,87.72     c4.04-0.03,4.08,5.97,0.04,6C116.35,93.75,116.31,87.75,120.34,87.72z M105.34,94.24c4-0.03,4.04,6.02,0.04,6.05     C101.39,100.31,101.35,94.27,105.34,94.24z"></path>
			<path class="st0" d="M77.5,40.44C34.47,40.73-0.29,75.97,0,118.99c0.32,47.45,42.88,83.96,90.14,76.55     c37.5-5.87,66.16-38.53,65.9-77.61C155.75,74.91,120.52,40.15,77.5,40.44z M78.95,193.06c-0.06-8.52-0.39-57.81-0.44-65.06     l9.43-9.12l-0.19-28.52l9.12-10.09c10.22,4.24,13.3-13.14,2.55-13.07c-5.47,0.04-8.66,6.24-5.49,10.71l-9.95,11.01l0.19,28.37     l-9.43,9.12l0.02,2.65l-6.66-6.24L68,108.2l0.12,0.14L80.2,98.3l-0.14-21.36c6.86-2.86,4.76-13.11-2.65-13.06     c-3.74,0.03-6.77,3.09-6.74,6.84c0.02,3.33,2.46,6.09,5.63,6.64l0.13,19.18l-8.45,7.02l-0.09-13.89     c2.56-0.99,4.37-3.48,4.35-6.38c-0.06-8.97-13.64-8.88-13.58,0.09c0.02,3.27,2.37,6,5.46,6.61l0.23,34.47l10.45,9.8     c0.04,6.29,0.36,52.71,0.4,58.75c-39.59-1.49-71.51-34.01-71.78-74.05C3.13,77.82,36.38,44.13,77.52,43.85     c41.14-0.28,74.84,32.97,75.12,74.11C152.91,158.94,119.91,192.56,78.95,193.06z M99.45,70.97c4.97-0.03,3.26,7.93-1.28,5.74     l-1.27-1.15C95.64,73.51,97.15,70.99,99.45,70.97z M66.58,86.14l-2.25,0.02c-2.94-1.16-2.44-5.78,1.09-5.81     C68.95,80.32,69.5,84.94,66.58,86.14z M77.47,73.69c-1.67,0.01-3.03-1.34-3.04-3c-0.01-1.67,1.34-3.03,3-3.04     c1.67-0.01,3.03,1.34,3.04,3C80.48,72.32,79.14,73.68,77.47,73.69z"></path>
		</g>
	</g>
	
		<rect x="594.36" y="104.5" transform="matrix(-1.836970e-16 1 -1 -1.836970e-16 806.7864 -594.3612)" class="st0" width="212.43" height="3.42"></rect>
	<g>
		<g>
			<path class="st0" d="M332.06,186.67h-74.23v-7.49c3.45-0.25,7.51-0.88,12.17-1.87c4.66-0.99,7-2.22,7-3.7     c0-0.51-0.05-1.09-0.14-1.73c-0.1-0.64-0.37-1.5-0.82-2.59l-11.63-28.23h-47.04c-1.08,2.62-2.28,5.7-3.58,9.22     c-1.31,3.52-2.43,6.66-3.39,9.41c-1.21,3.59-1.93,6.18-2.15,7.78c-0.23,1.6-0.34,2.72-0.34,3.36c0,2.05,1.55,3.79,4.65,5.23     s8.27,2.48,15.5,3.12v7.49h-55.89v-7.49c2.11-0.13,4.5-0.46,7.15-1.01c2.66-0.54,4.75-1.3,6.29-2.26     c2.62-1.54,4.85-3.42,6.67-5.67c1.82-2.24,3.34-4.9,4.56-7.97c7.43-17.99,14.87-36.01,22.33-54.06     c7.46-18.05,15.7-37.96,24.73-59.73h19.21c12.55,30.86,22.37,55.25,29.48,73.17c7.11,17.93,13.16,32.78,18.15,44.56     c0.83,1.92,1.89,3.67,3.17,5.23c1.28,1.57,3.1,3.06,5.47,4.47c1.79,1.02,3.87,1.79,6.24,2.3c2.37,0.51,4.51,0.83,6.43,0.96     V186.67z M260.46,131.55l-19.72-49.25l-19.43,49.25H260.46z"></path>
			<path class="st0" d="M392.94,186.67h-60.69v-7.01c1.66-0.13,3.3-0.29,4.9-0.48c1.6-0.19,2.98-0.51,4.13-0.96     c2.05-0.77,3.49-1.87,4.32-3.31c0.83-1.44,1.25-3.34,1.25-5.71V113.3c0-2.24-0.51-4.21-1.54-5.91c-1.02-1.7-2.3-3.06-3.84-4.08     c-1.15-0.77-2.9-1.5-5.23-2.21c-2.34-0.7-4.47-1.15-6.39-1.34v-7.01l47.05-2.5l1.44,1.44v76.25c0,2.24,0.48,4.15,1.44,5.71     c0.96,1.57,2.34,2.74,4.13,3.5c1.28,0.58,2.69,1.09,4.23,1.54c1.54,0.45,3.14,0.77,4.8,0.96V186.67z M378.92,55.69     c0,4.87-1.87,9.01-5.62,12.44c-3.75,3.43-8.18,5.14-13.3,5.14c-5.19,0-9.65-1.71-13.4-5.14c-3.75-3.42-5.62-7.57-5.62-12.44     c0-4.86,1.87-9.03,5.62-12.48s8.21-5.19,13.4-5.19s9.63,1.73,13.35,5.19C377.07,46.66,378.92,50.82,378.92,55.69z"></path>
			<path class="st0" d="M474.28,190.41c-9.99,0-19.33-1.62-28.04-4.86c-8.71-3.24-16.29-7.93-22.76-14.09     c-6.34-6.03-11.33-13.48-14.98-22.36c-3.65-8.88-5.47-18.64-5.47-29.28c0-10.58,1.84-20.37,5.52-29.38     c3.68-9.01,8.85-16.81,15.51-23.42c6.53-6.47,14.37-11.49,23.53-15.05c9.15-3.56,18.95-5.34,29.38-5.34     c7.55,0,14.44,0.93,20.65,2.78c6.21,1.86,11.46,3.94,15.75,6.24l5.95-5.28h8.36l0.86,49.74h-8.45     c-4.79-15.21-10.55-26.37-17.26-33.49c-6.71-7.12-14.9-10.68-24.55-10.68c-12.02,0-21.17,5.31-27.43,15.92     c-6.27,10.61-9.4,25.5-9.4,44.67c0,10.84,1.07,20.09,3.21,27.75c2.14,7.66,4.94,13.83,8.39,18.51     c3.71,4.87,8.09,8.45,13.14,10.73c5.05,2.28,10.65,3.41,16.79,3.41c8.95,0,16.93-2.43,23.93-7.3c7-4.86,13.38-12.23,19.14-22.09     l8.26,4.99c-2.75,5.63-5.89,10.67-9.41,15.12c-3.52,4.45-7.59,8.28-12.2,11.48c-5.06,3.52-10.64,6.27-16.76,8.26     C489.82,189.42,482.6,190.41,474.28,190.41z"></path>
			<path class="st0" d="M664.32,85.17h-7.3c-1.86-5.17-5.06-10.4-9.6-15.69c-4.55-5.29-9.06-8.42-13.54-9.38     c-1.92-0.45-4.59-0.72-8.02-0.81c-3.43-0.1-6.26-0.14-8.5-0.14h-19.78v52.53h14.02c3.52,0,6.72-0.42,9.6-1.25     c2.88-0.83,5.5-2.43,7.87-4.8c1.47-1.47,2.96-4.07,4.47-7.78c1.5-3.71,2.48-6.95,2.93-9.7h7.3v56.85h-7.3     c-0.38-2.69-1.36-6.06-2.93-10.13c-1.57-4.06-3.06-6.87-4.47-8.4c-2.11-2.3-4.61-3.89-7.49-4.75s-6.21-1.3-9.99-1.3h-14.02v39.28     c0,4.1,0.3,7.35,0.91,9.75c0.61,2.4,1.74,4.24,3.41,5.52c1.6,1.22,3.79,2.02,6.58,2.4c2.78,0.38,6.58,0.58,11.38,0.58     c2.24,0,4.93-0.03,8.07-0.1c3.14-0.06,5.89-0.25,8.26-0.58c2.69-0.32,5.2-0.8,7.54-1.44c2.34-0.64,4.08-1.57,5.23-2.78     c3.07-3.14,6.53-7.92,10.37-14.36c3.84-6.43,6.37-11.25,7.59-14.45h7.01l-2.59,42.44H543.52v-7.49c1.79-0.13,4.23-0.38,7.3-0.77     c3.07-0.38,5.25-0.83,6.53-1.34c2.43-1.02,4.06-2.32,4.9-3.89c0.83-1.57,1.25-3.57,1.25-6V71.05c0-2.3-0.35-4.21-1.06-5.71     c-0.71-1.5-2.4-2.86-5.09-4.08c-1.67-0.77-4-1.47-7.01-2.11c-3.01-0.64-5.28-1.06-6.82-1.25V50.4h120.8V85.17z"></path>
		</g>
	</g>
	<circle class="st0" cx="76.99" cy="70.64" r="4.94"></circle>
	<circle class="st0" cx="53.16" cy="99.23" r="4.94"></circle>
	<circle class="st0" cx="120.23" cy="131.23" r="4.94"></circle>
</g>
</svg>