<svg width="891" height="706" viewBox="0 0 891 706" fill="none" xmlns="http://www.w3.org/2000/svg">
<path d="M348.825 307.287L307.254 356.826L356.792 398.397L398.363 348.858L348.825 307.287Z" stroke="url(#paint0_linear)" stroke-miterlimit="10"/>
<path d="M368.484 296.198L296.248 337.076L337.126 409.312L409.362 368.434L368.484 296.198Z" stroke="url(#paint1_linear)" stroke-miterlimit="10"/>
<path d="M388.154 285.139L285.249 317.359L317.469 420.265L420.375 388.044L388.154 285.139Z" stroke="url(#paint2_linear)" stroke-miterlimit="10"/>
<path d="M407.796 274.274L274.221 297.82L297.767 431.396L431.343 407.849L407.796 274.274Z" stroke="url(#paint3_linear)" stroke-miterlimit="10"/>
<path d="M405.972 267.966L270.182 300.677L302.893 436.467L438.683 403.756L405.972 267.966Z" stroke="url(#paint4_linear)" stroke-miterlimit="10"/>
<path d="M404.084 261.605L266.089 303.483L307.968 441.479L445.963 399.6L404.084 261.605Z" stroke="url(#paint5_linear)" stroke-miterlimit="10"/>
<path d="M402.202 255.446L261.997 306.473L313.024 446.678L453.229 395.651L402.202 255.446Z" stroke="url(#paint6_linear)" stroke-miterlimit="10"/>
<path d="M395.713 250.434L254.87 311.813L316.25 452.656L457.092 391.276L395.713 250.434Z" stroke="url(#paint7_linear)" stroke-miterlimit="10"/>
<path d="M389.353 245.622L247.854 317.339L319.571 458.839L461.071 387.121L389.353 245.622Z" stroke="url(#paint8_linear)" stroke-miterlimit="10"/>
<path d="M382.824 240.665L240.691 322.728L322.754 464.86L464.886 382.797L382.824 240.665Z" stroke="url(#paint9_linear)" stroke-miterlimit="10"/>
<path d="M376.626 235.668L235.76 329.061L329.152 469.926L470.018 376.534L376.626 235.668Z" stroke="url(#paint10_linear)" stroke-miterlimit="10"/>
<path d="M370.23 230.666L230.653 335.379L335.367 474.956L474.944 370.243L370.23 230.666Z" stroke="url(#paint11_linear)" stroke-miterlimit="10"/>
<path d="M363.897 225.561L225.604 341.611L341.655 479.904L479.947 363.854L363.897 225.561Z" stroke="url(#paint12_linear)" stroke-miterlimit="10"/>
<path d="M356.1 221.385L221.356 349.455L349.426 484.199L484.169 356.129L356.1 221.385Z" stroke="url(#paint13_linear)" stroke-miterlimit="10"/>
<path d="M348.312 217.122L217.118 357.222L357.219 488.416L488.413 348.316L348.312 217.122Z" stroke="url(#paint14_linear)" stroke-miterlimit="10"/>
<path d="M340.576 212.96L212.921 365.081L365.043 492.736L492.697 340.615L340.576 212.96Z" stroke="url(#paint15_linear)" stroke-miterlimit="10"/>
<path d="M331.335 209.821L209.825 374.295L374.299 495.805L495.81 331.331L331.335 209.821Z" stroke="url(#paint16_linear)" stroke-miterlimit="10"/>
<path d="M322.069 206.706L206.705 383.532L383.531 498.896L498.895 322.07L322.069 206.706Z" stroke="url(#paint17_linear)" stroke-miterlimit="10"/>
<path d="M312.828 203.609L203.603 392.787L392.781 502.012L502.006 312.834L312.828 203.609Z" stroke="url(#paint18_linear)" stroke-miterlimit="10"/>
<path d="M302.248 201.958L202.036 403.35L403.427 503.562L503.639 302.17L302.248 201.958Z" stroke="url(#paint19_linear)" stroke-miterlimit="10"/>
<path d="M291.671 200.362L200.466 413.964L414.069 505.17L505.274 291.567L291.671 200.362Z" stroke="url(#paint20_linear)" stroke-miterlimit="10"/>
<path d="M280.989 198.764L198.809 424.565L424.61 506.745L506.79 280.944L280.989 198.764Z" stroke="url(#paint21_linear)" stroke-miterlimit="10"/>
<path d="M269.248 199.157L199.148 436.453L436.443 506.553L506.543 269.257L269.248 199.157Z" stroke="url(#paint22_linear)" stroke-miterlimit="10"/>
<path d="M257.409 199.365L199.417 448.171L448.223 506.163L506.215 257.358L257.409 199.365Z" stroke="url(#paint23_linear)" stroke-miterlimit="10"/>
<path d="M245.546 199.664L199.66 459.97L459.965 505.856L505.852 245.551L245.546 199.664Z" stroke="url(#paint24_linear)" stroke-miterlimit="10"/>
<path d="M233.575 201.606L202.982 472.071L473.447 502.664L504.04 232.199L233.575 201.606Z" stroke="url(#paint25_linear)" stroke-miterlimit="10"/>
<path d="M221.488 203.664L206.2 484.267L486.803 499.554L502.09 218.952L221.488 203.664Z" stroke="url(#paint26_linear)" stroke-miterlimit="10"/>
<path d="M500.28 205.657H209.522V496.415H500.28V205.657Z" stroke="url(#paint27_linear)" stroke-miterlimit="10"/>
<path d="M494.368 192.998L195.539 211.5L214.042 510.329L512.871 491.826L494.368 192.998Z" stroke="url(#paint28_linear)" stroke-miterlimit="10"/>
<path d="M488.46 180.199L181.561 217.232L218.594 524.132L525.494 487.098L488.46 180.199Z" stroke="url(#paint29_linear)" stroke-miterlimit="10"/>
<path d="M482.503 167.592L167.534 223.115L223.056 538.084L538.025 482.561L482.503 167.592Z" stroke="url(#paint30_linear)" stroke-miterlimit="10"/>
<path d="M474.362 154.139L154.175 231.271L231.307 551.458L551.494 474.326L474.362 154.139Z" stroke="url(#paint31_linear)" stroke-miterlimit="10"/>
<path d="M466.142 140.644L140.761 239.391L239.507 564.772L564.889 466.025L466.142 140.644Z" stroke="url(#paint32_linear)" stroke-miterlimit="10"/>
<path d="M457.958 127.349L127.359 247.669L247.679 578.267L578.278 457.947L457.958 127.349Z" stroke="url(#paint33_linear)" stroke-miterlimit="10"/>
<path d="M446.464 114.298L114.367 259.027L259.096 591.124L591.193 446.396L446.464 114.298Z" stroke="url(#paint34_linear)" stroke-miterlimit="10"/>
<path d="M435.134 101.44L101.491 270.543L270.594 604.187L604.238 435.084L435.134 101.44Z" stroke="url(#paint35_linear)" stroke-miterlimit="10"/>
<path d="M423.613 88.4422L88.4736 281.941L281.972 617.081L617.112 423.582L423.613 88.4422Z" stroke="url(#paint36_linear)" stroke-miterlimit="10"/>
<path d="M408.858 76.6188L76.7056 296.832L296.918 628.984L629.071 408.771L408.858 76.6188Z" stroke="url(#paint37_linear)" stroke-miterlimit="10"/>
<path d="M393.901 64.8039L64.7871 311.711L311.695 640.825L640.809 393.918L393.901 64.8039Z" stroke="url(#paint38_linear)" stroke-miterlimit="10"/>
<path d="M378.995 52.8746L52.9136 326.51L326.549 652.591L652.63 378.956L378.995 52.8746Z" stroke="url(#paint39_linear)" stroke-miterlimit="10"/>
<path d="M360.631 42.9416L42.9131 344.923L344.894 662.641L662.612 360.66L360.631 42.9416Z" stroke="url(#paint40_linear)" stroke-miterlimit="10"/>
<path d="M342.261 32.9218L32.915 363.268L363.261 672.614L672.607 342.268L342.261 32.9218Z" stroke="url(#paint41_linear)" stroke-miterlimit="10"/>
<path d="M323.964 23.0005L22.9634 381.691L381.654 682.692L682.655 324.001L323.964 23.0005Z" stroke="url(#paint42_linear)" stroke-miterlimit="10"/>
<path d="M302.164 15.6474L15.6475 403.472L403.472 689.988L689.988 302.164L302.164 15.6474Z" stroke="url(#paint43_linear)" stroke-miterlimit="10"/>
<path d="M280.336 8.30932L8.31055 425.26L425.261 697.286L697.287 280.335L280.336 8.30932Z" stroke="url(#paint44_linear)" stroke-miterlimit="10"/>
<path d="M258.547 1.0002L1 447.071L447.07 704.617L704.617 258.547L258.547 1.0002Z" stroke="url(#paint45_linear)" stroke-miterlimit="10"/>
<path d="M533.825 307.287L492.254 356.826L541.792 398.397L583.363 348.858L533.825 307.287Z" stroke="url(#paint46_linear)" stroke-miterlimit="10"/>
<path d="M553.484 296.198L481.248 337.076L522.126 409.312L594.362 368.434L553.484 296.198Z" stroke="url(#paint47_linear)" stroke-miterlimit="10"/>
<path d="M573.154 285.139L470.249 317.359L502.469 420.265L605.375 388.044L573.154 285.139Z" stroke="url(#paint48_linear)" stroke-miterlimit="10"/>
<path d="M592.796 274.274L459.221 297.82L482.767 431.396L616.343 407.849L592.796 274.274Z" stroke="url(#paint49_linear)" stroke-miterlimit="10"/>
<path d="M590.972 267.966L455.182 300.677L487.893 436.467L623.683 403.756L590.972 267.966Z" stroke="url(#paint50_linear)" stroke-miterlimit="10"/>
<path d="M589.084 261.605L451.089 303.483L492.968 441.479L630.963 399.6L589.084 261.605Z" stroke="url(#paint51_linear)" stroke-miterlimit="10"/>
<path d="M587.202 255.446L446.997 306.473L498.024 446.678L638.229 395.651L587.202 255.446Z" stroke="url(#paint52_linear)" stroke-miterlimit="10"/>
<path d="M580.713 250.434L439.87 311.813L501.25 452.656L642.092 391.276L580.713 250.434Z" stroke="url(#paint53_linear)" stroke-miterlimit="10"/>
<path d="M574.353 245.622L432.854 317.339L504.571 458.839L646.071 387.121L574.353 245.622Z" stroke="url(#paint54_linear)" stroke-miterlimit="10"/>
<path d="M567.824 240.665L425.691 322.728L507.754 464.86L649.886 382.797L567.824 240.665Z" stroke="url(#paint55_linear)" stroke-miterlimit="10"/>
<path d="M561.626 235.668L420.76 329.061L514.152 469.926L655.018 376.534L561.626 235.668Z" stroke="url(#paint56_linear)" stroke-miterlimit="10"/>
<path d="M555.23 230.666L415.653 335.379L520.367 474.956L659.944 370.243L555.23 230.666Z" stroke="url(#paint57_linear)" stroke-miterlimit="10"/>
<path d="M548.897 225.561L410.604 341.611L526.655 479.904L664.947 363.854L548.897 225.561Z" stroke="url(#paint58_linear)" stroke-miterlimit="10"/>
<path d="M541.1 221.385L406.356 349.455L534.426 484.199L669.169 356.129L541.1 221.385Z" stroke="url(#paint59_linear)" stroke-miterlimit="10"/>
<path d="M533.312 217.122L402.118 357.222L542.219 488.416L673.413 348.316L533.312 217.122Z" stroke="url(#paint60_linear)" stroke-miterlimit="10"/>
<path d="M525.576 212.96L397.921 365.081L550.043 492.736L677.697 340.615L525.576 212.96Z" stroke="url(#paint61_linear)" stroke-miterlimit="10"/>
<path d="M516.335 209.821L394.825 374.295L559.299 495.805L680.81 331.331L516.335 209.821Z" stroke="url(#paint62_linear)" stroke-miterlimit="10"/>
<path d="M507.069 206.706L391.705 383.532L568.531 498.896L683.895 322.07L507.069 206.706Z" stroke="url(#paint63_linear)" stroke-miterlimit="10"/>
<path d="M497.828 203.609L388.603 392.787L577.781 502.012L687.006 312.834L497.828 203.609Z" stroke="url(#paint64_linear)" stroke-miterlimit="10"/>
<path d="M487.248 201.958L387.036 403.35L588.427 503.562L688.639 302.17L487.248 201.958Z" stroke="url(#paint65_linear)" stroke-miterlimit="10"/>
<path d="M476.671 200.362L385.466 413.964L599.069 505.17L690.274 291.567L476.671 200.362Z" stroke="url(#paint66_linear)" stroke-miterlimit="10"/>
<path d="M465.989 198.764L383.809 424.565L609.61 506.745L691.79 280.944L465.989 198.764Z" stroke="url(#paint67_linear)" stroke-miterlimit="10"/>
<path d="M454.248 199.157L384.148 436.453L621.443 506.553L691.543 269.257L454.248 199.157Z" stroke="url(#paint68_linear)" stroke-miterlimit="10"/>
<path d="M442.409 199.365L384.417 448.171L633.223 506.163L691.215 257.358L442.409 199.365Z" stroke="url(#paint69_linear)" stroke-miterlimit="10"/>
<path d="M430.546 199.664L384.66 459.97L644.965 505.856L690.852 245.551L430.546 199.664Z" stroke="url(#paint70_linear)" stroke-miterlimit="10"/>
<path d="M418.575 201.606L387.982 472.071L658.447 502.664L689.04 232.199L418.575 201.606Z" stroke="url(#paint71_linear)" stroke-miterlimit="10"/>
<path d="M406.488 203.664L391.2 484.267L671.803 499.554L687.09 218.952L406.488 203.664Z" stroke="url(#paint72_linear)" stroke-miterlimit="10"/>
<path d="M685.28 205.657H394.522V496.415H685.28V205.657Z" stroke="url(#paint73_linear)" stroke-miterlimit="10"/>
<path d="M679.368 192.998L380.539 211.5L399.042 510.329L697.871 491.826L679.368 192.998Z" stroke="url(#paint74_linear)" stroke-miterlimit="10"/>
<path d="M673.46 180.199L366.561 217.232L403.594 524.132L710.494 487.098L673.46 180.199Z" stroke="url(#paint75_linear)" stroke-miterlimit="10"/>
<path d="M667.503 167.592L352.534 223.115L408.056 538.084L723.025 482.561L667.503 167.592Z" stroke="url(#paint76_linear)" stroke-miterlimit="10"/>
<path d="M659.362 154.139L339.175 231.271L416.307 551.458L736.494 474.326L659.362 154.139Z" stroke="url(#paint77_linear)" stroke-miterlimit="10"/>
<path d="M651.142 140.644L325.761 239.391L424.507 564.772L749.889 466.025L651.142 140.644Z" stroke="url(#paint78_linear)" stroke-miterlimit="10"/>
<path d="M642.958 127.349L312.359 247.669L432.679 578.267L763.278 457.947L642.958 127.349Z" stroke="url(#paint79_linear)" stroke-miterlimit="10"/>
<path d="M631.464 114.298L299.367 259.027L444.096 591.124L776.193 446.396L631.464 114.298Z" stroke="url(#paint80_linear)" stroke-miterlimit="10"/>
<path d="M620.134 101.44L286.491 270.543L455.594 604.187L789.238 435.084L620.134 101.44Z" stroke="url(#paint81_linear)" stroke-miterlimit="10"/>
<path d="M608.613 88.4422L273.474 281.941L466.972 617.081L802.112 423.582L608.613 88.4422Z" stroke="url(#paint82_linear)" stroke-miterlimit="10"/>
<path d="M593.858 76.6188L261.706 296.832L481.918 628.984L814.071 408.771L593.858 76.6188Z" stroke="url(#paint83_linear)" stroke-miterlimit="10"/>
<path d="M578.901 64.8039L249.787 311.711L496.695 640.825L825.809 393.918L578.901 64.8039Z" stroke="url(#paint84_linear)" stroke-miterlimit="10"/>
<path d="M563.995 52.8746L237.914 326.51L511.549 652.591L837.63 378.956L563.995 52.8746Z" stroke="url(#paint85_linear)" stroke-miterlimit="10"/>
<path d="M545.631 42.9416L227.913 344.923L529.894 662.641L847.612 360.66L545.631 42.9416Z" stroke="url(#paint86_linear)" stroke-miterlimit="10"/>
<path d="M527.261 32.9218L217.915 363.268L548.261 672.614L857.607 342.268L527.261 32.9218Z" stroke="url(#paint87_linear)" stroke-miterlimit="10"/>
<path d="M508.964 23.0005L207.963 381.691L566.654 682.692L867.655 324.001L508.964 23.0005Z" stroke="url(#paint88_linear)" stroke-miterlimit="10"/>
<path d="M487.164 15.6474L200.647 403.472L588.472 689.988L874.988 302.164L487.164 15.6474Z" stroke="url(#paint89_linear)" stroke-miterlimit="10"/>
<path d="M465.336 8.30932L193.311 425.26L610.261 697.286L882.287 280.335L465.336 8.30932Z" stroke="url(#paint90_linear)" stroke-miterlimit="10"/>
<path d="M443.547 1.0002L186 447.071L632.07 704.617L889.617 258.547L443.547 1.0002Z" stroke="url(#paint91_linear)" stroke-miterlimit="10"/>
<defs>
<linearGradient id="paint0_linear" x1="328.039" y1="332.056" x2="377.578" y2="373.627" gradientUnits="userSpaceOnUse">
<stop stop-color="#26C6DA"/>
<stop offset="1" stop-color="#03A9F4"/>
</linearGradient>
<linearGradient id="paint1_linear" x1="332.366" y1="316.637" x2="373.244" y2="388.873" gradientUnits="userSpaceOnUse">
<stop stop-color="#26C6DA"/>
<stop offset="1" stop-color="#03A9F4"/>
</linearGradient>
<linearGradient id="paint2_linear" x1="336.702" y1="301.249" x2="368.922" y2="404.155" gradientUnits="userSpaceOnUse">
<stop stop-color="#26C6DA"/>
<stop offset="1" stop-color="#03A9F4"/>
</linearGradient>
<linearGradient id="paint3_linear" x1="341.008" y1="286.047" x2="364.555" y2="419.622" gradientUnits="userSpaceOnUse">
<stop stop-color="#26C6DA"/>
<stop offset="1" stop-color="#03A9F4"/>
</linearGradient>
<linearGradient id="paint4_linear" x1="338.077" y1="284.322" x2="370.788" y2="420.112" gradientUnits="userSpaceOnUse">
<stop stop-color="#26C6DA"/>
<stop offset="1" stop-color="#03A9F4"/>
</linearGradient>
<linearGradient id="paint5_linear" x1="335.087" y1="282.544" x2="376.966" y2="420.539" gradientUnits="userSpaceOnUse">
<stop stop-color="#26C6DA"/>
<stop offset="1" stop-color="#03A9F4"/>
</linearGradient>
<linearGradient id="paint6_linear" x1="332.1" y1="280.959" x2="383.127" y2="421.164" gradientUnits="userSpaceOnUse">
<stop stop-color="#26C6DA"/>
<stop offset="1" stop-color="#03A9F4"/>
</linearGradient>
<linearGradient id="paint7_linear" x1="325.291" y1="281.124" x2="386.671" y2="421.966" gradientUnits="userSpaceOnUse">
<stop stop-color="#26C6DA"/>
<stop offset="1" stop-color="#03A9F4"/>
</linearGradient>
<linearGradient id="paint8_linear" x1="318.604" y1="281.481" x2="390.321" y2="422.98" gradientUnits="userSpaceOnUse">
<stop stop-color="#26C6DA"/>
<stop offset="1" stop-color="#03A9F4"/>
</linearGradient>
<linearGradient id="paint9_linear" x1="311.757" y1="281.696" x2="393.82" y2="423.828" gradientUnits="userSpaceOnUse">
<stop stop-color="#26C6DA"/>
<stop offset="1" stop-color="#03A9F4"/>
</linearGradient>
<linearGradient id="paint10_linear" x1="306.193" y1="282.364" x2="399.585" y2="423.23" gradientUnits="userSpaceOnUse">
<stop stop-color="#26C6DA"/>
<stop offset="1" stop-color="#03A9F4"/>
</linearGradient>
<linearGradient id="paint11_linear" x1="300.442" y1="283.023" x2="405.155" y2="422.6" gradientUnits="userSpaceOnUse">
<stop stop-color="#26C6DA"/>
<stop offset="1" stop-color="#03A9F4"/>
</linearGradient>
<linearGradient id="paint12_linear" x1="294.751" y1="283.586" x2="410.801" y2="421.879" gradientUnits="userSpaceOnUse">
<stop stop-color="#26C6DA"/>
<stop offset="1" stop-color="#03A9F4"/>
</linearGradient>
<linearGradient id="paint13_linear" x1="288.728" y1="285.42" x2="416.798" y2="420.164" gradientUnits="userSpaceOnUse">
<stop stop-color="#26C6DA"/>
<stop offset="1" stop-color="#03A9F4"/>
</linearGradient>
<linearGradient id="paint14_linear" x1="282.715" y1="287.172" x2="422.816" y2="418.366" gradientUnits="userSpaceOnUse">
<stop stop-color="#26C6DA"/>
<stop offset="1" stop-color="#03A9F4"/>
</linearGradient>
<linearGradient id="paint15_linear" x1="276.749" y1="289.02" x2="428.87" y2="416.675" gradientUnits="userSpaceOnUse">
<stop stop-color="#26C6DA"/>
<stop offset="1" stop-color="#03A9F4"/>
</linearGradient>
<linearGradient id="paint16_linear" x1="270.58" y1="292.058" x2="435.054" y2="413.568" gradientUnits="userSpaceOnUse">
<stop stop-color="#26C6DA"/>
<stop offset="1" stop-color="#03A9F4"/>
</linearGradient>
<linearGradient id="paint17_linear" x1="264.387" y1="295.119" x2="441.213" y2="410.483" gradientUnits="userSpaceOnUse">
<stop stop-color="#26C6DA"/>
<stop offset="1" stop-color="#03A9F4"/>
</linearGradient>
<linearGradient id="paint18_linear" x1="258.216" y1="298.198" x2="447.394" y2="407.423" gradientUnits="userSpaceOnUse">
<stop stop-color="#26C6DA"/>
<stop offset="1" stop-color="#03A9F4"/>
</linearGradient>
<linearGradient id="paint19_linear" x1="252.142" y1="302.654" x2="453.533" y2="402.866" gradientUnits="userSpaceOnUse">
<stop stop-color="#26C6DA"/>
<stop offset="1" stop-color="#03A9F4"/>
</linearGradient>
<linearGradient id="paint20_linear" x1="246.069" y1="307.163" x2="459.671" y2="398.369" gradientUnits="userSpaceOnUse">
<stop stop-color="#26C6DA"/>
<stop offset="1" stop-color="#03A9F4"/>
</linearGradient>
<linearGradient id="paint21_linear" x1="239.899" y1="311.665" x2="465.7" y2="393.844" gradientUnits="userSpaceOnUse">
<stop stop-color="#26C6DA"/>
<stop offset="1" stop-color="#03A9F4"/>
</linearGradient>
<linearGradient id="paint22_linear" x1="234.198" y1="317.805" x2="471.493" y2="387.905" gradientUnits="userSpaceOnUse">
<stop stop-color="#26C6DA"/>
<stop offset="1" stop-color="#03A9F4"/>
</linearGradient>
<linearGradient id="paint23_linear" x1="228.413" y1="323.768" x2="477.219" y2="381.761" gradientUnits="userSpaceOnUse">
<stop stop-color="#26C6DA"/>
<stop offset="1" stop-color="#03A9F4"/>
</linearGradient>
<linearGradient id="paint24_linear" x1="222.603" y1="329.817" x2="482.909" y2="375.703" gradientUnits="userSpaceOnUse">
<stop stop-color="#26C6DA"/>
<stop offset="1" stop-color="#03A9F4"/>
</linearGradient>
<linearGradient id="paint25_linear" x1="218.279" y1="336.838" x2="488.744" y2="367.431" gradientUnits="userSpaceOnUse">
<stop stop-color="#26C6DA"/>
<stop offset="1" stop-color="#03A9F4"/>
</linearGradient>
<linearGradient id="paint26_linear" x1="213.844" y1="343.965" x2="494.447" y2="359.253" gradientUnits="userSpaceOnUse">
<stop stop-color="#26C6DA"/>
<stop offset="1" stop-color="#03A9F4"/>
</linearGradient>
<linearGradient id="paint27_linear" x1="354.901" y1="205.657" x2="354.901" y2="496.415" gradientUnits="userSpaceOnUse">
<stop stop-color="#26C6DA"/>
<stop offset="1" stop-color="#03A9F4"/>
</linearGradient>
<linearGradient id="paint28_linear" x1="344.953" y1="202.249" x2="363.456" y2="501.078" gradientUnits="userSpaceOnUse">
<stop stop-color="#26C6DA"/>
<stop offset="1" stop-color="#03A9F4"/>
</linearGradient>
<linearGradient id="paint29_linear" x1="335.01" y1="198.715" x2="372.044" y2="505.615" gradientUnits="userSpaceOnUse">
<stop stop-color="#26C6DA"/>
<stop offset="1" stop-color="#03A9F4"/>
</linearGradient>
<linearGradient id="paint30_linear" x1="325.018" y1="195.353" x2="380.541" y2="510.322" gradientUnits="userSpaceOnUse">
<stop stop-color="#26C6DA"/>
<stop offset="1" stop-color="#03A9F4"/>
</linearGradient>
<linearGradient id="paint31_linear" x1="314.268" y1="192.705" x2="391.401" y2="512.892" gradientUnits="userSpaceOnUse">
<stop stop-color="#26C6DA"/>
<stop offset="1" stop-color="#03A9F4"/>
</linearGradient>
<linearGradient id="paint32_linear" x1="303.451" y1="190.017" x2="402.198" y2="515.399" gradientUnits="userSpaceOnUse">
<stop stop-color="#26C6DA"/>
<stop offset="1" stop-color="#03A9F4"/>
</linearGradient>
<linearGradient id="paint33_linear" x1="292.659" y1="187.509" x2="412.979" y2="518.107" gradientUnits="userSpaceOnUse">
<stop stop-color="#26C6DA"/>
<stop offset="1" stop-color="#03A9F4"/>
</linearGradient>
<linearGradient id="paint34_linear" x1="280.415" y1="186.662" x2="425.144" y2="518.76" gradientUnits="userSpaceOnUse">
<stop stop-color="#26C6DA"/>
<stop offset="1" stop-color="#03A9F4"/>
</linearGradient>
<linearGradient id="paint35_linear" x1="268.313" y1="185.992" x2="437.416" y2="519.635" gradientUnits="userSpaceOnUse">
<stop stop-color="#26C6DA"/>
<stop offset="1" stop-color="#03A9F4"/>
</linearGradient>
<linearGradient id="paint36_linear" x1="256.044" y1="185.192" x2="449.542" y2="520.331" gradientUnits="userSpaceOnUse">
<stop stop-color="#26C6DA"/>
<stop offset="1" stop-color="#03A9F4"/>
</linearGradient>
<linearGradient id="paint37_linear" x1="242.782" y1="186.725" x2="462.994" y2="518.877" gradientUnits="userSpaceOnUse">
<stop stop-color="#26C6DA"/>
<stop offset="1" stop-color="#03A9F4"/>
</linearGradient>
<linearGradient id="paint38_linear" x1="229.344" y1="188.258" x2="476.252" y2="517.372" gradientUnits="userSpaceOnUse">
<stop stop-color="#26C6DA"/>
<stop offset="1" stop-color="#03A9F4"/>
</linearGradient>
<linearGradient id="paint39_linear" x1="215.954" y1="189.692" x2="489.59" y2="515.774" gradientUnits="userSpaceOnUse">
<stop stop-color="#26C6DA"/>
<stop offset="1" stop-color="#03A9F4"/>
</linearGradient>
<linearGradient id="paint40_linear" x1="201.772" y1="193.932" x2="503.753" y2="511.65" gradientUnits="userSpaceOnUse">
<stop stop-color="#26C6DA"/>
<stop offset="1" stop-color="#03A9F4"/>
</linearGradient>
<linearGradient id="paint41_linear" x1="187.588" y1="198.095" x2="517.934" y2="507.441" gradientUnits="userSpaceOnUse">
<stop stop-color="#26C6DA"/>
<stop offset="1" stop-color="#03A9F4"/>
</linearGradient>
<linearGradient id="paint42_linear" x1="173.464" y1="202.346" x2="532.155" y2="503.347" gradientUnits="userSpaceOnUse">
<stop stop-color="#26C6DA"/>
<stop offset="1" stop-color="#03A9F4"/>
</linearGradient>
<linearGradient id="paint43_linear" x1="158.906" y1="209.56" x2="546.73" y2="496.076" gradientUnits="userSpaceOnUse">
<stop stop-color="#26C6DA"/>
<stop offset="1" stop-color="#03A9F4"/>
</linearGradient>
<linearGradient id="paint44_linear" x1="144.324" y1="216.785" x2="561.274" y2="488.81" gradientUnits="userSpaceOnUse">
<stop stop-color="#26C6DA"/>
<stop offset="1" stop-color="#03A9F4"/>
</linearGradient>
<linearGradient id="paint45_linear" x1="129.773" y1="224.035" x2="575.844" y2="481.582" gradientUnits="userSpaceOnUse">
<stop stop-color="#26C6DA"/>
<stop offset="1" stop-color="#03A9F4"/>
</linearGradient>
<linearGradient id="paint46_linear" x1="513.039" y1="332.056" x2="562.578" y2="373.627" gradientUnits="userSpaceOnUse">
<stop stop-color="#26C6DA"/>
<stop offset="1" stop-color="#03A9F4"/>
</linearGradient>
<linearGradient id="paint47_linear" x1="517.366" y1="316.637" x2="558.244" y2="388.873" gradientUnits="userSpaceOnUse">
<stop stop-color="#26C6DA"/>
<stop offset="1" stop-color="#03A9F4"/>
</linearGradient>
<linearGradient id="paint48_linear" x1="521.702" y1="301.249" x2="553.922" y2="404.155" gradientUnits="userSpaceOnUse">
<stop stop-color="#26C6DA"/>
<stop offset="1" stop-color="#03A9F4"/>
</linearGradient>
<linearGradient id="paint49_linear" x1="526.008" y1="286.047" x2="549.555" y2="419.622" gradientUnits="userSpaceOnUse">
<stop stop-color="#26C6DA"/>
<stop offset="1" stop-color="#03A9F4"/>
</linearGradient>
<linearGradient id="paint50_linear" x1="523.077" y1="284.322" x2="555.788" y2="420.112" gradientUnits="userSpaceOnUse">
<stop stop-color="#26C6DA"/>
<stop offset="1" stop-color="#03A9F4"/>
</linearGradient>
<linearGradient id="paint51_linear" x1="520.087" y1="282.544" x2="561.966" y2="420.539" gradientUnits="userSpaceOnUse">
<stop stop-color="#26C6DA"/>
<stop offset="1" stop-color="#03A9F4"/>
</linearGradient>
<linearGradient id="paint52_linear" x1="517.1" y1="280.959" x2="568.127" y2="421.164" gradientUnits="userSpaceOnUse">
<stop stop-color="#26C6DA"/>
<stop offset="1" stop-color="#03A9F4"/>
</linearGradient>
<linearGradient id="paint53_linear" x1="510.291" y1="281.124" x2="571.671" y2="421.966" gradientUnits="userSpaceOnUse">
<stop stop-color="#26C6DA"/>
<stop offset="1" stop-color="#03A9F4"/>
</linearGradient>
<linearGradient id="paint54_linear" x1="503.604" y1="281.481" x2="575.321" y2="422.98" gradientUnits="userSpaceOnUse">
<stop stop-color="#26C6DA"/>
<stop offset="1" stop-color="#03A9F4"/>
</linearGradient>
<linearGradient id="paint55_linear" x1="496.757" y1="281.696" x2="578.82" y2="423.828" gradientUnits="userSpaceOnUse">
<stop stop-color="#26C6DA"/>
<stop offset="1" stop-color="#03A9F4"/>
</linearGradient>
<linearGradient id="paint56_linear" x1="491.193" y1="282.364" x2="584.585" y2="423.23" gradientUnits="userSpaceOnUse">
<stop stop-color="#26C6DA"/>
<stop offset="1" stop-color="#03A9F4"/>
</linearGradient>
<linearGradient id="paint57_linear" x1="485.442" y1="283.023" x2="590.155" y2="422.6" gradientUnits="userSpaceOnUse">
<stop stop-color="#26C6DA"/>
<stop offset="1" stop-color="#03A9F4"/>
</linearGradient>
<linearGradient id="paint58_linear" x1="479.751" y1="283.586" x2="595.801" y2="421.879" gradientUnits="userSpaceOnUse">
<stop stop-color="#26C6DA"/>
<stop offset="1" stop-color="#03A9F4"/>
</linearGradient>
<linearGradient id="paint59_linear" x1="473.728" y1="285.42" x2="601.798" y2="420.164" gradientUnits="userSpaceOnUse">
<stop stop-color="#26C6DA"/>
<stop offset="1" stop-color="#03A9F4"/>
</linearGradient>
<linearGradient id="paint60_linear" x1="467.715" y1="287.172" x2="607.816" y2="418.366" gradientUnits="userSpaceOnUse">
<stop stop-color="#26C6DA"/>
<stop offset="1" stop-color="#03A9F4"/>
</linearGradient>
<linearGradient id="paint61_linear" x1="461.749" y1="289.02" x2="613.87" y2="416.675" gradientUnits="userSpaceOnUse">
<stop stop-color="#26C6DA"/>
<stop offset="1" stop-color="#03A9F4"/>
</linearGradient>
<linearGradient id="paint62_linear" x1="455.58" y1="292.058" x2="620.054" y2="413.568" gradientUnits="userSpaceOnUse">
<stop stop-color="#26C6DA"/>
<stop offset="1" stop-color="#03A9F4"/>
</linearGradient>
<linearGradient id="paint63_linear" x1="449.387" y1="295.119" x2="626.213" y2="410.483" gradientUnits="userSpaceOnUse">
<stop stop-color="#26C6DA"/>
<stop offset="1" stop-color="#03A9F4"/>
</linearGradient>
<linearGradient id="paint64_linear" x1="443.216" y1="298.198" x2="632.394" y2="407.423" gradientUnits="userSpaceOnUse">
<stop stop-color="#26C6DA"/>
<stop offset="1" stop-color="#03A9F4"/>
</linearGradient>
<linearGradient id="paint65_linear" x1="437.142" y1="302.654" x2="638.533" y2="402.866" gradientUnits="userSpaceOnUse">
<stop stop-color="#26C6DA"/>
<stop offset="1" stop-color="#03A9F4"/>
</linearGradient>
<linearGradient id="paint66_linear" x1="431.069" y1="307.163" x2="644.671" y2="398.369" gradientUnits="userSpaceOnUse">
<stop stop-color="#26C6DA"/>
<stop offset="1" stop-color="#03A9F4"/>
</linearGradient>
<linearGradient id="paint67_linear" x1="424.899" y1="311.665" x2="650.7" y2="393.844" gradientUnits="userSpaceOnUse">
<stop stop-color="#26C6DA"/>
<stop offset="1" stop-color="#03A9F4"/>
</linearGradient>
<linearGradient id="paint68_linear" x1="419.198" y1="317.805" x2="656.493" y2="387.905" gradientUnits="userSpaceOnUse">
<stop stop-color="#26C6DA"/>
<stop offset="1" stop-color="#03A9F4"/>
</linearGradient>
<linearGradient id="paint69_linear" x1="413.413" y1="323.768" x2="662.219" y2="381.761" gradientUnits="userSpaceOnUse">
<stop stop-color="#26C6DA"/>
<stop offset="1" stop-color="#03A9F4"/>
</linearGradient>
<linearGradient id="paint70_linear" x1="407.603" y1="329.817" x2="667.909" y2="375.703" gradientUnits="userSpaceOnUse">
<stop stop-color="#26C6DA"/>
<stop offset="1" stop-color="#03A9F4"/>
</linearGradient>
<linearGradient id="paint71_linear" x1="403.279" y1="336.838" x2="673.744" y2="367.431" gradientUnits="userSpaceOnUse">
<stop stop-color="#26C6DA"/>
<stop offset="1" stop-color="#03A9F4"/>
</linearGradient>
<linearGradient id="paint72_linear" x1="398.844" y1="343.965" x2="679.447" y2="359.253" gradientUnits="userSpaceOnUse">
<stop stop-color="#26C6DA"/>
<stop offset="1" stop-color="#03A9F4"/>
</linearGradient>
<linearGradient id="paint73_linear" x1="539.901" y1="205.657" x2="539.901" y2="496.415" gradientUnits="userSpaceOnUse">
<stop stop-color="#26C6DA"/>
<stop offset="1" stop-color="#03A9F4"/>
</linearGradient>
<linearGradient id="paint74_linear" x1="529.953" y1="202.249" x2="548.456" y2="501.078" gradientUnits="userSpaceOnUse">
<stop stop-color="#26C6DA"/>
<stop offset="1" stop-color="#03A9F4"/>
</linearGradient>
<linearGradient id="paint75_linear" x1="520.01" y1="198.715" x2="557.044" y2="505.615" gradientUnits="userSpaceOnUse">
<stop stop-color="#26C6DA"/>
<stop offset="1" stop-color="#03A9F4"/>
</linearGradient>
<linearGradient id="paint76_linear" x1="510.018" y1="195.353" x2="565.541" y2="510.322" gradientUnits="userSpaceOnUse">
<stop stop-color="#26C6DA"/>
<stop offset="1" stop-color="#03A9F4"/>
</linearGradient>
<linearGradient id="paint77_linear" x1="499.268" y1="192.705" x2="576.401" y2="512.892" gradientUnits="userSpaceOnUse">
<stop stop-color="#26C6DA"/>
<stop offset="1" stop-color="#03A9F4"/>
</linearGradient>
<linearGradient id="paint78_linear" x1="488.451" y1="190.017" x2="587.198" y2="515.399" gradientUnits="userSpaceOnUse">
<stop stop-color="#26C6DA"/>
<stop offset="1" stop-color="#03A9F4"/>
</linearGradient>
<linearGradient id="paint79_linear" x1="477.659" y1="187.509" x2="597.979" y2="518.107" gradientUnits="userSpaceOnUse">
<stop stop-color="#26C6DA"/>
<stop offset="1" stop-color="#03A9F4"/>
</linearGradient>
<linearGradient id="paint80_linear" x1="465.415" y1="186.662" x2="610.144" y2="518.76" gradientUnits="userSpaceOnUse">
<stop stop-color="#26C6DA"/>
<stop offset="1" stop-color="#03A9F4"/>
</linearGradient>
<linearGradient id="paint81_linear" x1="453.313" y1="185.992" x2="622.416" y2="519.635" gradientUnits="userSpaceOnUse">
<stop stop-color="#26C6DA"/>
<stop offset="1" stop-color="#03A9F4"/>
</linearGradient>
<linearGradient id="paint82_linear" x1="441.044" y1="185.192" x2="634.542" y2="520.331" gradientUnits="userSpaceOnUse">
<stop stop-color="#26C6DA"/>
<stop offset="1" stop-color="#03A9F4"/>
</linearGradient>
<linearGradient id="paint83_linear" x1="427.782" y1="186.725" x2="647.994" y2="518.877" gradientUnits="userSpaceOnUse">
<stop stop-color="#26C6DA"/>
<stop offset="1" stop-color="#03A9F4"/>
</linearGradient>
<linearGradient id="paint84_linear" x1="414.344" y1="188.258" x2="661.252" y2="517.372" gradientUnits="userSpaceOnUse">
<stop stop-color="#26C6DA"/>
<stop offset="1" stop-color="#03A9F4"/>
</linearGradient>
<linearGradient id="paint85_linear" x1="400.954" y1="189.692" x2="674.59" y2="515.774" gradientUnits="userSpaceOnUse">
<stop stop-color="#26C6DA"/>
<stop offset="1" stop-color="#03A9F4"/>
</linearGradient>
<linearGradient id="paint86_linear" x1="386.772" y1="193.932" x2="688.753" y2="511.65" gradientUnits="userSpaceOnUse">
<stop stop-color="#26C6DA"/>
<stop offset="1" stop-color="#03A9F4"/>
</linearGradient>
<linearGradient id="paint87_linear" x1="372.588" y1="198.095" x2="702.934" y2="507.441" gradientUnits="userSpaceOnUse">
<stop stop-color="#26C6DA"/>
<stop offset="1" stop-color="#03A9F4"/>
</linearGradient>
<linearGradient id="paint88_linear" x1="358.464" y1="202.346" x2="717.155" y2="503.347" gradientUnits="userSpaceOnUse">
<stop stop-color="#26C6DA"/>
<stop offset="1" stop-color="#03A9F4"/>
</linearGradient>
<linearGradient id="paint89_linear" x1="343.906" y1="209.56" x2="731.73" y2="496.076" gradientUnits="userSpaceOnUse">
<stop stop-color="#26C6DA"/>
<stop offset="1" stop-color="#03A9F4"/>
</linearGradient>
<linearGradient id="paint90_linear" x1="329.324" y1="216.785" x2="746.274" y2="488.81" gradientUnits="userSpaceOnUse">
<stop stop-color="#26C6DA"/>
<stop offset="1" stop-color="#03A9F4"/>
</linearGradient>
<linearGradient id="paint91_linear" x1="314.773" y1="224.035" x2="760.844" y2="481.582" gradientUnits="userSpaceOnUse">
<stop stop-color="#26C6DA"/>
<stop offset="1" stop-color="#03A9F4"/>
</linearGradient>
</defs>
</svg>
