<svg width="666" height="618" viewBox="0 0 666 618" fill="none" xmlns="http://www.w3.org/2000/svg">
<path d="M310.717 386.192L360.251 394.418C379.601 397.631 395.176 378.695 388.286 360.327L370.647 313.316C363.756 294.948 339.564 290.935 327.103 306.084L295.215 344.868C282.749 360.023 291.367 382.979 310.717 386.192Z" stroke="#293DFF" stroke-width="0.552088" stroke-miterlimit="10"/>
<path d="M305.539 393.103L369.029 399.739C388.749 402.384 403.937 382.685 396.368 364.284L370.37 305.983C362.796 287.582 338.145 284.281 325.994 300.037L288.501 351.707C276.35 367.459 285.813 390.459 305.539 393.103Z" stroke="#4051FF" stroke-width="0.552088" stroke-miterlimit="10"/>
<path d="M300.36 400.01L377.813 405.05C397.909 407.121 412.705 386.666 404.456 368.226L370.1 298.63C361.846 280.19 336.732 277.601 324.889 293.97L281.799 358.52C269.946 374.895 280.264 397.94 300.36 400.01Z" stroke="#5764FF" stroke-width="0.552088" stroke-miterlimit="10"/>
<path d="M295.176 406.922L386.585 410.373C407.051 411.874 421.466 390.658 412.528 372.185L369.813 291.298C360.88 272.825 335.296 270.948 323.768 287.925L275.074 365.361C263.547 382.332 274.715 405.42 295.176 406.922Z" stroke="#6E78FF" stroke-width="0.552088" stroke-miterlimit="10"/>
<path d="M289.997 413.829L395.369 415.69C416.205 416.617 430.233 394.644 420.616 376.133L369.542 283.95C359.93 265.444 333.883 264.279 322.664 281.863L268.372 372.185C257.143 389.769 269.162 412.902 289.997 413.829Z" stroke="#848CFF" stroke-width="0.552088" stroke-miterlimit="10"/>
<path d="M284.819 420.741L404.147 421.006C425.353 421.365 438.995 398.63 428.699 380.085L369.266 276.607C358.97 258.062 332.464 257.615 321.549 275.806L261.653 379.014C250.744 397.205 263.613 420.382 284.819 420.741Z" stroke="#9B9FFF" stroke-width="0.552088" stroke-miterlimit="10"/>
<path d="M279.64 426.985L412.931 425.66C434.506 425.445 447.762 401.953 436.787 383.375L368.996 268.607C358.02 250.03 331.051 250.295 320.445 269.088L254.945 385.181C244.345 403.974 258.059 427.2 279.64 426.985Z" stroke="#B2B3FF" stroke-width="0.552088" stroke-miterlimit="10"/>
<path d="M280.363 429.502L415.459 423.915C437.327 423.009 450.02 398.773 438.299 380.283L365.915 266.078C354.194 247.589 326.86 248.72 316.707 268.115L253.995 387.907C243.848 407.297 258.495 430.407 280.363 429.502Z" stroke="#94A0FD" stroke-width="0.552088" stroke-miterlimit="10"/>
<path d="M281.092 432.021L417.999 422.171C440.16 420.576 452.289 395.588 439.823 377.193L362.84 263.551C350.379 245.155 322.675 247.148 312.975 267.139L253.051 390.625C243.351 410.616 258.926 433.616 281.092 432.021Z" stroke="#778CFC" stroke-width="0.552088" stroke-miterlimit="10"/>
<path d="M281.815 434.537L420.528 420.426C442.981 418.14 454.547 392.407 441.341 374.1L359.765 261.027C346.559 242.719 318.491 245.579 309.238 266.167L252.102 393.351C242.854 413.939 259.362 436.823 281.815 434.537Z" stroke="#5979FA" stroke-width="0.552088" stroke-miterlimit="10"/>
<path d="M282.539 437.055L423.062 418.681C445.808 415.706 456.805 389.222 442.86 371.008L356.69 258.498C342.738 240.285 314.306 244 305.505 265.19L251.158 396.073C242.358 417.262 259.793 440.025 282.539 437.055Z" stroke="#3B66F8" stroke-width="0.552088" stroke-miterlimit="10"/>
<path d="M283.267 439.571L425.595 416.935C448.634 413.27 459.069 386.04 444.378 367.915L353.614 255.968C338.923 237.849 310.121 242.426 301.773 264.211L250.208 398.788C241.86 420.579 260.223 443.231 283.267 439.571Z" stroke="#1E52F7" stroke-width="0.552088" stroke-miterlimit="10"/>
<path d="M283.99 442.088L428.13 415.191C451.461 410.835 461.332 382.855 445.896 364.824L350.534 253.445C335.097 235.414 305.93 240.858 298.036 263.239L249.259 401.515C241.364 423.903 260.659 446.439 283.99 442.088Z" stroke="#003FF5" stroke-width="0.552088" stroke-miterlimit="10"/>
<path d="M285.586 444.137L430.868 412.282C454.387 407.125 463.502 378.439 447.276 360.65L347.045 250.763C330.819 232.974 301.42 239.417 294.127 262.368L249.077 404.116C241.789 427.056 262.067 449.294 285.586 444.137Z" stroke="#0843F7" stroke-width="0.552088" stroke-miterlimit="10"/>
<path d="M287.187 446.186L433.612 409.367C457.319 403.405 465.677 374.022 448.667 356.471L343.566 248.074C326.551 230.524 296.92 237.977 290.229 261.485L248.9 406.706C242.214 430.208 263.48 452.143 287.187 446.186Z" stroke="#0F47F8" stroke-width="0.552088" stroke-miterlimit="10"/>
<path d="M288.783 448.234L436.356 406.452C460.245 399.689 467.853 369.6 450.054 352.292L340.078 245.38C322.273 228.072 292.416 236.53 286.326 260.601L248.723 409.29C242.639 433.361 264.894 454.997 288.783 448.234Z" stroke="#174CFA" stroke-width="0.552088" stroke-miterlimit="10"/>
<path d="M290.378 450.282L439.094 403.537C463.171 395.968 470.022 365.178 451.433 348.113L336.593 242.691C318.005 225.626 287.91 235.084 282.422 259.718L248.546 411.879C243.064 436.513 266.301 457.846 290.378 450.282Z" stroke="#1E50FC" stroke-width="0.552088" stroke-miterlimit="10"/>
<path d="M291.974 452.332L441.833 400.629C466.091 392.259 472.192 360.762 452.814 343.94L333.11 240.004C313.732 223.182 283.405 233.644 278.525 258.836L248.375 414.469C243.489 439.672 267.715 460.701 291.974 452.332Z" stroke="#2554FD" stroke-width="0.552088" stroke-miterlimit="10"/>
<path d="M293.57 454.38L444.577 397.714C469.023 388.538 474.367 356.346 454.205 339.761L329.626 237.321C309.459 220.736 278.901 232.203 274.622 257.964L248.193 417.07C243.915 442.825 269.129 463.556 293.57 454.38Z" stroke="#2D58FF" stroke-width="0.552088" stroke-miterlimit="10"/>
<path d="M296.225 456.433L447.525 394.174C472.015 384.093 476.415 351.282 455.441 335.112L325.872 235.217C304.898 219.046 274.279 231.645 270.762 257.897L249.032 420.056C245.51 446.297 271.729 466.509 296.225 456.433Z" stroke="#4167FF" stroke-width="0.552088" stroke-miterlimit="10"/>
<path d="M298.875 458.486L450.462 390.629C475.002 379.643 478.447 346.214 456.667 330.451L322.112 233.102C300.327 217.34 269.653 231.07 266.898 257.819L249.866 423.026C247.106 449.769 274.335 469.467 298.875 458.486Z" stroke="#5576FF" stroke-width="0.552088" stroke-miterlimit="10"/>
<path d="M301.53 460.54L453.41 387.09C478 375.198 480.495 341.151 457.904 325.803L318.353 230.993C295.761 215.645 265.026 230.507 263.033 257.747L250.7 426.007C248.707 453.242 276.94 472.427 301.53 460.54Z" stroke="#6A85FF" stroke-width="0.552088" stroke-miterlimit="10"/>
<path d="M304.186 462.595L456.358 383.552C480.992 370.755 482.538 336.089 459.141 321.155L314.598 228.89C291.201 213.956 260.405 229.95 259.169 257.681L251.533 428.989C250.302 456.72 279.552 475.392 304.186 462.595Z" stroke="#7E95FF" stroke-width="0.552088" stroke-miterlimit="10"/>
<path d="M306.836 464.648L459.301 380.013C483.985 366.31 484.575 331.032 460.372 316.506L310.839 226.786C286.63 212.261 255.779 229.387 255.304 257.615L252.367 431.976C251.898 460.193 282.158 478.351 306.836 464.648Z" stroke="#92A4FF" stroke-width="0.552088" stroke-miterlimit="10"/>
<path d="M310.375 466.703L463.132 376.469C487.86 361.861 487.507 325.964 462.492 311.853L307.968 224.678C282.952 210.567 252.041 228.824 252.328 257.544L254.089 434.952C254.376 463.666 285.641 481.311 310.375 466.703Z" stroke="#A6B3FF" stroke-width="0.552088" stroke-miterlimit="10"/>
<path d="M314.35 468.832L466.71 372.184C491.239 356.653 489.759 320.392 464.043 306.916L304.164 223.296C278.448 209.82 247.79 229.231 248.972 258.238L256.491 438.506C257.678 467.518 289.821 484.362 314.35 468.832Z" stroke="#9DAFFF" stroke-width="0.552088" stroke-miterlimit="10"/>
<path d="M318.33 470.97L470.287 367.906C494.618 351.453 492.012 314.833 465.6 301.986L300.365 221.917C273.954 209.075 243.539 229.641 245.626 258.934L258.904 442.068C260.985 471.367 294 487.422 318.33 470.97Z" stroke="#94AAFF" stroke-width="0.552088" stroke-miterlimit="10"/>
<path d="M322.311 473.101L473.87 363.617C498.002 346.242 494.27 309.258 467.157 297.051L296.562 220.537C269.449 208.331 239.288 230.05 242.269 259.636L261.305 445.629C264.287 475.216 298.179 490.475 322.311 473.101Z" stroke="#8BA6FF" stroke-width="0.552088" stroke-miterlimit="10"/>
<path d="M326.286 475.231L477.442 359.331C501.37 341.029 496.517 303.691 468.708 292.114L292.758 219.156C264.944 207.584 235.031 230.457 238.918 260.33L263.712 449.189C267.594 479.062 302.359 493.533 326.286 475.231Z" stroke="#81A2FF" stroke-width="0.552088" stroke-miterlimit="10"/>
<path d="M330.267 477.368L481.025 355.047C504.754 335.823 498.775 298.121 470.265 287.184L288.954 217.781C260.444 206.844 230.78 230.871 235.561 261.032L266.114 452.75C270.901 482.916 306.538 496.586 330.267 477.368Z" stroke="#789DFF" stroke-width="0.552088" stroke-miterlimit="10"/>
<path d="M334.247 479.498L484.603 350.762C508.133 330.616 501.028 292.555 471.817 282.248L285.15 216.4C255.939 206.098 226.529 231.279 232.21 261.727L268.516 456.31C274.202 486.763 310.717 499.644 334.247 479.498Z" stroke="#6F99FF" stroke-width="0.552088" stroke-miterlimit="10"/>
<path d="M339.155 482.266L488.976 345.166C511.86 324.391 503.678 286.628 474.24 277.198L280.595 215.999C251.158 206.564 222.554 232.534 229.102 262.744L272.927 461.044C279.475 491.248 316.266 503.041 339.155 482.266Z" stroke="#639CFA" stroke-width="0.552088" stroke-miterlimit="10"/>
<path d="M344.063 485.026L493.348 339.556C515.592 318.152 506.322 280.693 476.664 272.13L276.041 215.579C246.382 207.016 218.574 233.776 225.994 263.744L277.332 465.764C284.741 495.731 321.814 506.431 344.063 485.026Z" stroke="#589FF5" stroke-width="0.552088" stroke-miterlimit="10"/>
<path d="M348.966 487.791L497.715 333.952C519.318 311.918 508.961 274.762 479.082 267.072L271.48 215.17C241.596 207.479 214.593 235.023 222.874 264.747L281.727 470.489C290.014 500.213 327.368 509.825 348.966 487.791Z" stroke="#4CA2F1" stroke-width="0.552088" stroke-miterlimit="10"/>
<path d="M353.874 490.558L502.088 328.349C523.045 305.686 511.611 268.828 481.5 262.01L266.92 214.757C236.815 207.938 210.612 236.272 219.76 265.753L286.127 475.216C295.281 504.697 332.917 513.221 353.874 490.558Z" stroke="#40A5EC" stroke-width="0.552088" stroke-miterlimit="10"/>
<path d="M358.782 493.324L506.46 322.751C526.777 299.458 514.256 262.905 483.924 256.959L262.36 214.348C232.028 208.402 206.632 237.52 216.647 266.764L290.527 479.947C300.553 509.186 338.465 516.617 358.782 493.324Z" stroke="#35A8E7" stroke-width="0.552088" stroke-miterlimit="10"/>
<path d="M363.69 496.085L510.833 317.142C530.504 293.214 516.9 256.964 486.348 251.89L257.805 213.929C227.247 208.855 202.657 238.762 213.539 267.763L294.933 484.668C305.82 513.669 344.019 520.012 363.69 496.085Z" stroke="#29ABE2" stroke-width="0.552088" stroke-miterlimit="10"/>
<path d="M369.498 498.988L514.128 310.853C533.06 286.417 518.44 250.653 487.816 246.474L252.571 215.286C221.947 211.107 198.279 241.648 209.977 270.263L300.592 489.586C312.285 518.195 350.567 523.418 369.498 498.988Z" stroke="#22A1DC" stroke-width="0.552088" stroke-miterlimit="10"/>
<path d="M375.311 501.887L517.43 304.559C535.621 279.616 519.986 244.337 489.29 241.058L247.343 216.645C216.647 213.365 193.912 244.542 206.417 272.764L306.245 494.505C318.75 522.728 357.12 526.83 375.311 501.887Z" stroke="#1B98D5" stroke-width="0.552088" stroke-miterlimit="10"/>
<path d="M381.12 504.785L520.726 298.265C538.172 272.814 521.527 238.021 490.759 235.636L242.104 217.992C211.341 215.607 189.528 247.424 202.85 275.26L311.899 499.424C325.215 527.255 363.674 530.236 381.12 504.785Z" stroke="#158ECF" stroke-width="0.552088" stroke-miterlimit="10"/>
<path d="M386.927 507.683L524.022 291.971C540.728 266.012 523.067 231.705 492.227 230.215L236.87 219.344C206.036 217.859 185.156 250.305 199.284 277.755L317.546 504.338C331.68 531.787 370.221 533.643 386.927 507.683Z" stroke="#0E84C9" stroke-width="0.552088" stroke-miterlimit="10"/>
<path d="M392.736 510.587L527.318 285.683C543.279 259.216 524.602 225.389 493.702 224.804L231.642 220.702C200.736 220.111 180.783 253.198 195.728 280.256L323.206 509.257C338.145 536.32 376.775 537.054 392.736 510.587Z" stroke="#077BC2" stroke-width="0.552088" stroke-miterlimit="10"/>
<path d="M398.549 514.823L530.62 280.732C545.841 253.752 526.148 220.417 495.176 220.726L226.408 223.398C195.436 223.707 176.411 257.429 192.162 284.1L328.859 515.519C344.61 542.185 383.328 541.798 398.549 514.823Z" stroke="#0071BC" stroke-width="0.552088" stroke-miterlimit="10"/>
<path d="M405.207 518.191L532.43 274.455C546.829 247.104 526.225 214.421 495.335 215.624L220.638 227.317C189.754 228.521 171.751 262.706 188.236 288.853L335.71 520.901C352.201 547.043 390.809 545.541 405.207 518.191Z" stroke="#0071BC" stroke-width="0.552088" stroke-miterlimit="10"/>
<path d="M411.871 521.558L534.247 268.177C547.828 240.457 526.308 208.425 495.507 210.523L214.88 231.232C184.079 233.329 167.103 267.984 184.322 293.606L342.573 526.279C359.793 551.901 398.29 549.279 411.871 521.558Z" stroke="#0071BC" stroke-width="0.552088" stroke-miterlimit="10"/>
<path d="M418.535 524.925L536.063 261.899C548.828 233.803 526.391 202.428 495.678 205.426L209.122 235.156C178.409 238.148 162.46 273.267 180.408 298.37L349.43 531.666C367.384 556.764 405.77 553.021 418.535 524.925Z" stroke="#0071BC" stroke-width="0.552088" stroke-miterlimit="10"/>
<path d="M425.193 528.293L537.874 255.623C549.815 227.157 526.468 196.433 495.843 200.325L203.358 239.076C172.733 242.969 157.805 278.551 176.488 303.124L356.286 537.05C374.969 561.623 413.251 556.759 425.193 528.293Z" stroke="#0071BC" stroke-width="0.552088" stroke-miterlimit="10"/>
<path d="M431.857 531.66L539.696 249.344C550.821 220.503 526.551 190.442 496.015 195.223L197.6 242.99C167.064 247.776 153.157 283.822 172.574 307.877L363.149 542.426C382.561 566.481 420.732 560.496 431.857 531.66Z" stroke="#0071BC" stroke-width="0.552088" stroke-miterlimit="10"/>
<path d="M438.52 535.029L541.512 243.067C551.814 213.856 526.633 184.447 496.185 190.128L191.841 246.91C161.393 252.591 148.513 289.106 168.659 312.636L370.011 547.809C390.151 571.339 428.212 564.24 438.52 535.029Z" stroke="#0071BC" stroke-width="0.552088" stroke-miterlimit="10"/>
<path d="M445.924 538.485L541.43 236.901C550.865 207.463 524.895 178.86 494.684 185.407L185.752 253.491C155.542 260.039 143.755 296.835 164.53 319.72L377.956 553.225C398.731 576.109 436.494 567.922 445.924 538.485Z" stroke="#0866B5" stroke-width="0.552088" stroke-miterlimit="10"/>
<path d="M453.327 541.946L541.346 230.739C549.909 201.081 523.15 173.272 493.182 180.692L179.657 260.066C149.689 267.48 138.99 304.553 160.394 326.802L385.9 558.635C407.31 580.873 444.77 571.604 453.327 541.946Z" stroke="#0F5CAE" stroke-width="0.552088" stroke-miterlimit="10"/>
<path d="M460.736 545.407L541.275 224.578C548.965 194.693 521.422 167.691 491.697 175.972L173.578 266.641C143.854 274.923 134.242 312.277 156.276 333.88L393.856 564.046C415.89 585.644 453.046 575.292 460.736 545.407Z" stroke="#1751A7" stroke-width="0.552088" stroke-miterlimit="10"/>
<path d="M468.14 548.863L541.192 218.405C548.01 188.3 519.677 162.098 490.196 171.246L167.483 273.205C138.002 282.354 129.478 319.99 152.141 340.947L401.795 569.44C424.47 590.408 461.321 578.974 468.14 548.863Z" stroke="#1F46A0" stroke-width="0.552088" stroke-miterlimit="10"/>
<path d="M475.543 552.324L541.109 212.243C547.055 181.911 517.938 156.515 488.694 166.53L161.394 279.785C132.15 289.8 124.719 327.718 148.011 348.035L409.745 574.86C433.049 595.177 469.597 582.656 475.543 552.324Z" stroke="#263C99" stroke-width="0.552088" stroke-miterlimit="10"/>
<path d="M482.952 555.786L541.038 206.083C546.111 175.525 516.205 150.934 487.203 161.816L155.31 286.367C126.309 297.249 119.965 335.448 143.893 355.119L417.701 580.272C441.623 599.948 477.879 586.345 482.952 555.786Z" stroke="#2E3192" stroke-width="0.552088" stroke-miterlimit="10"/>
<path d="M490.858 557.852L538.592 199.122C542.771 168.497 512.23 144.829 483.615 156.528L149.082 294.55C120.473 306.243 115.25 344.525 139.68 363.456L426.479 584.159C450.915 603.096 486.679 588.477 490.858 557.852Z" stroke="#2B2C8A" stroke-width="0.552088" stroke-miterlimit="10"/>
<path d="M498.769 559.916L536.151 192.159C539.431 161.463 508.254 138.728 480.031 151.233L142.854 302.737C114.632 315.242 110.53 353.612 135.473 371.803L435.268 588.056C460.206 606.242 495.484 590.612 498.769 559.916Z" stroke="#282783" stroke-width="0.552088" stroke-miterlimit="10"/>
<path d="M506.676 561.975L533.711 185.192C536.096 154.429 504.279 132.616 476.443 145.938L136.622 310.919C108.785 324.235 105.81 362.694 131.261 380.14L444.047 591.943C469.498 609.389 504.291 592.743 506.676 561.975Z" stroke="#25237B" stroke-width="0.552088" stroke-miterlimit="10"/>
<path d="M514.587 564.04L531.271 178.229C532.756 147.395 500.31 126.515 472.86 140.643L130.4 319.1C102.955 333.228 101.095 371.775 127.054 388.475L452.83 595.829C478.789 612.541 513.096 594.874 514.587 564.04Z" stroke="#211E73" stroke-width="0.552088" stroke-miterlimit="10"/>
<path d="M522.493 566.105L528.825 171.268C529.416 140.362 496.329 120.41 469.271 135.355L124.166 327.288C97.1084 342.228 96.3686 380.858 122.841 396.824L461.608 599.728C488.081 615.688 521.902 597.011 522.493 566.105Z" stroke="#1E196C" stroke-width="0.552088" stroke-miterlimit="10"/>
<path d="M528.389 568.17L524.376 164.306C524.067 133.334 490.345 114.309 463.674 130.06L115.93 335.47C89.2583 351.221 89.6447 389.939 116.62 405.16L468.383 603.614C495.364 618.835 528.699 599.142 528.389 568.17Z" stroke="#1B1464" stroke-width="0.552088" stroke-miterlimit="10"/>
<path d="M535.803 568.369L518.451 156.743C517.248 125.859 483.062 107.855 456.916 124.341L109.116 345.182C82.9694 361.667 84.4766 400.275 111.822 414.679L476.973 605.464C504.323 619.862 537.007 599.253 535.803 568.369Z" stroke="#273276" stroke-width="0.552088" stroke-miterlimit="10"/>
<path d="M543.218 568.568L512.528 149.18C510.43 118.379 475.775 101.402 450.153 118.622L102.298 354.893C76.676 372.113 79.2985 410.61 107.024 424.192L485.569 607.308C513.29 620.89 545.322 599.364 543.218 568.568Z" stroke="#345088" stroke-width="0.552088" stroke-miterlimit="10"/>
<path d="M550.632 568.767L506.603 141.622C503.611 110.909 468.493 94.9591 443.389 112.907L95.4852 364.61C70.3872 382.558 74.1304 420.951 102.226 433.71L494.165 609.152C522.255 621.917 553.63 599.48 550.632 568.767Z" stroke="#406E9A" stroke-width="0.552088" stroke-miterlimit="10"/>
<path d="M558.047 568.965L500.674 134.058C496.782 103.433 461.2 88.5047 436.626 107.187L88.6669 374.326C64.0935 393.009 68.9518 431.285 97.423 443.233L502.75 611.001C531.221 622.937 561.939 599.59 558.047 568.965Z" stroke="#4C8CAC" stroke-width="0.552088" stroke-miterlimit="10"/>
<path d="M565.462 569.164L494.75 126.494C489.964 95.958 453.918 82.0509 429.863 101.468L81.8545 384.038C57.8 403.449 63.7846 441.621 92.6257 452.745L511.346 612.845C540.182 623.964 570.248 599.7 565.462 569.164Z" stroke="#59AABE" stroke-width="0.552088" stroke-miterlimit="10"/>
<path d="M572.876 569.362L488.826 118.93C483.145 88.4819 446.63 75.6016 423.1 95.7473L75.0361 393.754C51.5061 413.899 58.6115 451.96 87.8225 462.268L519.937 614.694C549.148 624.99 578.557 599.81 572.876 569.362Z" stroke="#65C8D0" stroke-width="0.552088" stroke-miterlimit="10"/>
<path d="M579.733 567.209L479.364 111.024C472.816 80.8134 436.019 69.0263 413.135 89.8014L68.2508 404.818C45.3667 425.593 53.5487 463.356 82.986 472.785L528.24 613.954C557.672 623.389 586.281 597.419 579.733 567.209Z" stroke="#54D1D8" stroke-width="0.552088" stroke-miterlimit="10"/>
<path d="M586.585 565.063L469.89 103.125C462.475 73.1577 425.403 62.4582 403.153 83.8627L61.4493 415.894C39.2056 437.299 48.4752 474.758 78.1334 483.321L536.533 613.227C566.196 621.784 593.999 595.03 586.585 565.063Z" stroke="#43DAE0" stroke-width="0.552088" stroke-miterlimit="10"/>
<path d="M593.442 562.909L460.427 95.2185C452.146 65.494 414.792 55.8822 393.189 77.916L54.6645 426.957C33.0613 448.991 43.4184 486.147 73.2975 493.837L544.836 612.487C574.721 620.177 601.723 592.634 593.442 562.909Z" stroke="#33E3E8" stroke-width="0.552088" stroke-miterlimit="10"/>
<path d="M600.293 560.76L450.953 87.3169C441.805 57.8354 404.169 49.3111 383.212 71.9743L47.8677 438.026C26.9104 460.689 38.3442 497.546 68.4551 504.365L553.139 611.751C583.244 618.575 609.447 590.242 600.293 560.76Z" stroke="#22EDEF" stroke-width="0.552088" stroke-miterlimit="10"/>
<path d="M607.15 558.608L441.49 79.4121C431.475 50.1679 393.558 42.7368 373.241 66.0295L41.077 449.096C20.7602 472.389 33.2815 508.943 63.6133 514.889L561.437 611.018C591.769 616.97 617.165 587.853 607.15 558.608Z" stroke="#11F6F7" stroke-width="0.552088" stroke-miterlimit="10"/>
<path d="M614.007 556.46L432.022 71.5165C421.14 42.5153 382.941 36.1717 363.271 60.0992L34.2866 460.176C14.6156 484.103 28.2191 520.353 58.7717 525.427L569.741 610.294C600.299 615.368 624.889 585.461 614.007 556.46Z" stroke="#00FFFF" stroke-width="0.552088" stroke-miterlimit="10"/>
<path d="M621.598 551.424L420.467 63.538C408.774 34.9288 370.492 29.7061 351.561 54.136L29.6049 472.266C10.6738 496.701 25.2931 532.465 55.9174 536.645L579.005 606.401C609.629 610.58 633.292 580.033 621.598 551.424Z" stroke="#00D4FF" stroke-width="0.552088" stroke-miterlimit="10"/>
<path d="M629.189 546.391L408.911 55.5678C396.407 27.345 358.036 23.243 339.845 48.1864L24.9173 484.364C6.72597 509.307 22.3611 544.586 53.0572 547.865L588.263 602.511C618.959 605.796 641.699 574.614 629.189 546.391Z" stroke="#00AAFF" stroke-width="0.552088" stroke-miterlimit="10"/>
<path d="M636.786 541.356L397.362 47.5958C384.046 19.7595 345.587 16.7838 328.141 42.2351L20.2414 496.46C2.79536 521.912 19.4408 556.704 50.2087 559.089L597.533 598.624C628.295 601.009 650.103 569.193 636.786 541.356Z" stroke="#0080FF" stroke-width="0.552088" stroke-miterlimit="10"/>
<path d="M644.377 536.32L385.807 39.6227C371.679 12.1784 333.132 10.3178 316.431 36.277L15.5594 508.555C-1.14679 534.515 16.5145 568.822 47.3542 570.312L606.791 594.737C637.631 596.222 658.511 563.77 644.377 536.32Z" stroke="#0055FF" stroke-width="0.552088" stroke-miterlimit="10"/>
<path d="M651.974 531.285L374.257 31.6453C359.317 4.58743 320.688 3.84761 304.721 30.3203L10.8776 520.647C-5.0833 547.114 13.5938 580.94 44.4942 581.525L616.049 590.834C646.961 591.43 666.913 558.343 651.974 531.285Z" stroke="#002BFF" stroke-width="0.552088" stroke-miterlimit="10"/>
<path d="M659.565 523.352L362.702 20.7744C346.95 -5.89701 308.232 -5.51055 293.011 21.4645L6.19593 529.844C-9.02515 556.819 10.6679 590.16 41.64 589.851L625.313 584.048C656.297 583.745 675.322 550.023 659.565 523.352Z" stroke="#0000FF" stroke-width="0.552088" stroke-miterlimit="10"/>
</svg>
